/* XPM */
static char *result[] = {
/* columns rows colors chars-per-pixel */
"48 48 33 1 ",
"  c #574B82",
". c #594E84",
"X c #56478F",
"o c #564A8A",
"O c #5B4D8D",
"+ c #5C5086",
"@ c #5D508C",
"# c #5C4D92",
"$ c #59479B",
"% c #5D4C99",
"& c #5E5192",
"* c #605294",
"= c #635599",
"- c #766EA2",
"; c #786DA5",
": c #746DAB",
"> c #786CAB",
", c #746DB0",
"< c #EFF3BC",
"1 c #F3F5B6",
"2 c #F3F2BE",
"3 c #DAD8D7",
"4 c #DCD6DC",
"5 c #F2EFC5",
"6 c #F0EFC9",
"7 c #EEF3C3",
"8 c #F3F2C2",
"9 c #F3F2CC",
"0 c #F2F2D2",
"q c #DCD5E2",
"w c #DDD8E4",
"e c #DCD6EA",
"r c None",
/* pixels */
"rrrrrrrrrrrrrrrrrrrrrrrrrrrrrrrrrrrrrrrrrrrrrrrr",
"rrrrrrrrrrrrrrrrrrrrrrrrrrrrrrrrrrrrrrrrrrrrrrrr",
"rrrrrrrrrrrrrrrrrrrrrrrrrrrrrrrrrrrrrrrrrrrrrrrr",
"rrrrrrrrrrrrrrrrrrrrrrrrrrrrrrrrrrrrrrrrrrrrrrrr",
"rrrrrrrrrrrrrrrrrrrrrrrrrrrrrrrrrrrrrrrrrrrrrrrr",
"rrrrrrrrrrrrrrrrrrrrrrrrrrrrrrrrrrrrrrrrrrrrrrrr",
"rrrrrrrrrrrrrrrrrrrrrrrrrrrrrrrrrrrrrrrrrrrrrrrr",
"rrrrrrrrrrrrrrrrrrrrrrrrrrrrrrrrrrrrrrrrrrrrrrrr",
"rrrrrrrrrrrrrrOO#OOXrrrrrrrrXXXOoOrrrrrrrrrrrrrr",
"rrrrrrrrrrrrrr$%##O*rrrrrrrr#&O@%%rrrrrrrrrrrrrr",
"rrrrrrrrrrrr #067789Xorrrro#787719OOrrrrrrrrrrrr",
"rrrrrrrrrrrr%@882228%*rrrrO%288882%%rrrrrrrrrrrr",
"rrrrrrrrrrrr#%<85288%O###*%#888822X%rrrrrrrrrrrr",
"rrrrrrrrrrrr##<82281O####OO*282288O#rrrrrrrrrrrr",
"rrrrrrrrrrrr##782221qq444qq4282822@#rrrrrrrrrrrr",
"rrrrrrrrrrrr##8882284qqq4qq4222252*&rrrrrrrrrrrr",
"rrrrrrrrrrrr##88282282222282222228O#rrrrrrrrrrrr",
"rrrrrrrrrrrr#&<<222225222212222288O#rrrrrrrrrrrr",
"rrrrrrrrrrrr##28222282822222282882O#rrrrrrrrrrrr",
"rrrrrrrrrrrr##27222222222222222288OOrrrrrrrrrrrr",
"rrrrrrrrrrO+%#<8288222828282222882#% Orrrrrrrrrr",
"rrrrrrrrrr#O##77222228222222822288OO@&rrrrrrrrrr",
"rrrrrrrrrrrr##<8222222222282282882##rrrrrrrrrrrr",
"rrrrrrrrrrrr#&28822828282822222288O@rrrrrrrrrrrr",
"rrrrrrrrrr&OXO88228222222222222288#=OOrrrrrrrrrr",
"rrrrrrrrrro#O#<8282282888822282282#**%rrrrrrrrrr",
"rrrrrrrrrrrr##7<22121212222222222<##rrrrrrrrrrrr",
"rrrrrrrrrrrr##7<228285222822282288+#rrrrrrrrrrrr",
"rrrrrrrrrrrrrrOO++;;--------;;@+O#rrrrrrrrrrrrrr",
"rrrrrrrrrrrrrr@%##>;::::::::;;*##@rrrrrrrrrrrrrr",
"rrrrrrrrrrrrOoe486;>::##&O:::>654qO rrrrrrrrrrrr",
"rrrrrrrrrrrr#.4425;-::###O:,;>95q3##rrrrrrrrrrrr",
"rrrrrrrrrrrr##345898##5585@+88883q#@rrrrrrrrrrrr",
"rrrrrrrrrrrrO#e3<128##2888*#8882qq##rrrrrrrrrrrr",
"rrrrrrrrrrrrrrX#&*819822255522OO@&rrrrrrrrrrrrrr",
"rrrrrrrrrrrrrr####521252291258OO&&rrrrrrrrrrrrrr",
"rrrrrrrrrrrrrrrr##3444*##Ow444##rrrrrrrrrrrrrrrr",
"rrrrrrrrrrrrrrrr%OqqqqO#@%4q4q##rrrrrrrrrrrrrrrr",
"rrrrrrrrrrrrrrrrrr*#O%rrrrO%%Orrrrrrrrrrrrrrrrrr",
"rrrrrrrrrrrrrrrrrr%OO*rrrr%#O#rrrrrrrrrrrrrrrrrr",
"rrrrrrrrrrrrrrrrrrrrrrrrrrrrrrrrrrrrrrrrrrrrrrrr",
"rrrrrrrrrrrrrrrrrrrrrrrrrrrrrrrrrrrrrrrrrrrrrrrr",
"rrrrrrrrrrrrrrrrrrrrrrrrrrrrrrrrrrrrrrrrrrrrrrrr",
"rrrrrrrrrrrrrrrrrrrrrrrrrrrrrrrrrrrrrrrrrrrrrrrr",
"rrrrrrrrrrrrrrrrrrrrrrrrrrrrrrrrrrrrrrrrrrrrrrrr",
"rrrrrrrrrrrrrrrrrrrrrrrrrrrrrrrrrrrrrrrrrrrrrrrr",
"rrrrrrrrrrrrrrrrrrrrrrrrrrrrrrrrrrrrrrrrrrrrrrrr",
"rrrrrrrrrrrrrrrrrrrrrrrrrrrrrrrrrrrrrrrrrrrrrrrr"
};
