/* XPM */
static char *result[] = {
/* columns rows colors chars-per-pixel */
"48 48 82 1 ",
"  c #514677",
". c #554B77",
"X c #544A7B",
"o c #5C5275",
"O c #5E517B",
"+ c #605477",
"@ c #E7E46C",
"# c #EAE174",
"$ c #EBE07A",
"% c #4E4780",
"& c #564A85",
"* c #5B4E86",
"= c #55478A",
"- c #564A89",
"; c #5B4E8D",
": c #5C5085",
"> c #55518E",
", c #5C518A",
"< c #564597",
"1 c #5C4D93",
"2 c #5D4C99",
"3 c #5E5193",
"4 c #634B95",
"5 c #615294",
"6 c #63549A",
"7 c #746EA6",
"8 c #756CAA",
"9 c #7171AD",
"0 c #756BB4",
"q c #DDBFA3",
"w c #DABBAE",
"e c #E4B7A7",
"r c #E1B9A6",
"t c #E6B6AD",
"y c #E9B5AD",
"u c #E2B8A9",
"i c #E3DF84",
"p c #E9E28A",
"a c #E3DDA4",
"s c #E6DBAA",
"d c #EDDABC",
"f c #F1D9BE",
"g c #EDEEBF",
"h c #EDF6B1",
"j c #EDF3BE",
"k c #F5F3B3",
"l c #F3F2BE",
"z c #DCD8CD",
"x c #DED7D3",
"c c #DAD8D6",
"v c #DCD6DD",
"b c #DBD9D9",
"n c #ECDBC3",
"m c #EFD8C9",
"M c #F2D6C4",
"N c #F1D9C2",
"B c #F1D6CC",
"V c #EEDBD0",
"C c #E0D6DC",
"Z c #F5EFC7",
"A c #FBEEC6",
"S c #F4EFCA",
"D c #FBEEC8",
"F c #EDF3CD",
"G c #F3F2C2",
"H c #F3F1CC",
"J c #EDE4D9",
"K c #EEEEDE",
"L c #F4EFD2",
"P c #F1EEDD",
"I c #EFF1D2",
"U c #EEF0DC",
"Y c #F4F2D3",
"T c #D3CAE9",
"R c #DBD5E3",
"E c #DED9E1",
"W c #DDD3EE",
"Q c #DAD2F0",
"! c #E0D6E0",
"~ c #EEECE9",
"^ c #F2EEE5",
"/ c None",
/* pixels */
"////////////////////////////////////////////////",
"////////////////////////////////////////////////",
"////////////////////////////////////////////////",
"////////////////////////////////////////////////",
"////////////////////////////////////////////////",
"////////////////////////////////////////////////",
"////////////////////////////////////////////////",
"////////////////////////////////////////////////",
"//////////////;----=////////&=-&&*//////////////",
"//////////////134;15////////111;11//////////////",
"////////////X%JLSLLYX-////&;IIHLFU-&////////////",
"////////////21jlGGll11////12lGGGGl22////////////",
"////////////21wreeAG11;;-&61jGqrtw41////////////",
"////////////11ytyyGk;1111;11Glutyt;1////////////",
"////////////12yyyyGkRWRRRRRRllutyy;3////////////",
"////////////11yyyyGGvRvRCRRCZletyt;1////////////",
"////////////11ADGZjGvRvvvvRvllADSD>1////////////",
"////////////11jjlAlGvvvvvvvvllllll,1////////////",
"////////////11GlGllZvvvvvvRvlllGGG11////////////",
"////////////<1jGllllvvvvvcvvGGllGG;1////////////",
"//////////*121GGllllGlZlGGlGlllGGl;5;1//////////",
"//////////1,2>jGlGlGlSGlGlGllGllGG11;*//////////",
"////////////23jG4;lGGGllllGllG;4jl11////////////",
"////////////61lG12lllllGlGlllG,1YG1=////////////",
"//////////1;21lGGhlllllllGGlZkGglG,6;1//////////",
"//////////1131lGllGlGllllllllllgll452;//////////",
"////////////3;nNMMAjljlllljlGldMNN21////////////",
"////////////3<VNMMAlkllllllkllfnBf15////////////",
"//////////////1;>19888888888874111//////////////",
"//////////////;122788887707878111,//////////////",
"////////////XXTW^^8889sa^^8888~^WQ .////////////",
"////////////2*vRlG8888$@Gl8788GZv!11////////////",
"////////////1;cvGGPPPP$#ppPPUPllvR;;////////////",
"////////////11RvlklGGl#$##llllllvc11////////////",
"//////////////::oollllkkkklllloo:,//////////////",
"//////////////2111llllGGZkllGl;;1;//////////////",
"////////////////11zcxxOOo+xxxz13////////////////",
"////////////////1;Rvvv1111vvvR11////////////////",
"//////////////////*::,////,:*://////////////////",
"//////////////////3111////1112//////////////////",
"////////////////////////////////////////////////",
"////////////////////////////////////////////////",
"////////////////////////////////////////////////",
"////////////////////////////////////////////////",
"////////////////////////////////////////////////",
"////////////////////////////////////////////////",
"////////////////////////////////////////////////",
"////////////////////////////////////////////////"
};
