/* XPM */
static char *result[] = {
/* columns rows colors chars-per-pixel */
"48 48 230 2 ",
"   c #4C4173",
".  c #4C4276",
"X  c #4F4675",
"o  c #4F4676",
"O  c #4F4871",
"+  c #514675",
"@  c #514775",
"#  c #54477D",
"$  c #5D5371",
"%  c #5E5270",
"&  c #5E5272",
"*  c #5D5274",
"=  c #5E5176",
"-  c #5F5179",
";  c #5C527D",
":  c #5F507F",
">  c #60507E",
",  c #EDDF77",
"<  c #ECE077",
"1  c #EAE078",
"2  c #EDE07A",
"3  c #EBE479",
"4  c #5E4F80",
"5  c #5F4F80",
"6  c #5F4F83",
"7  c #5C4B8A",
"8  c #5D4E8B",
"9  c #584A8E",
"0  c #5B4F8D",
"q  c #5A4D8F",
"w  c #5B4D8F",
"e  c #594F8F",
"r  c #5B4E8E",
"t  c #5D4E8D",
"y  c #5E4E8C",
"u  c #5C4C8F",
"i  c #5D4D8F",
"p  c #5E4D8E",
"a  c #5C4F8E",
"s  c #5C4E8F",
"d  c #5B5081",
"f  c #5D5080",
"g  c #5E5180",
"h  c #5E5183",
"j  c #5F5382",
"k  c #57518F",
"l  c #5B508D",
"z  c #5D528E",
"x  c #594A93",
"c  c #5B4D90",
"v  c #5A4C91",
"b  c #5B4C91",
"n  c #5B4D91",
"m  c #5A4D92",
"M  c #5B4D92",
"N  c #5A4E92",
"B  c #5C4E90",
"V  c #5C4E91",
"C  c #5D4E91",
"Z  c #5C4F91",
"A  c #5C4D92",
"S  c #5C4D93",
"D  c #5E4D92",
"F  c #5C4E92",
"G  c #5C4F92",
"H  c #5D4F92",
"J  c #5D4F93",
"K  c #5B4D95",
"L  c #5A4E94",
"P  c #5A4E95",
"I  c #5A4C96",
"U  c #5B4D96",
"Y  c #5A4C97",
"T  c #5B4C97",
"R  c #5B4D97",
"E  c #5A4E97",
"W  c #5C4C94",
"Q  c #5C4D94",
"!  c #5D4C95",
"~  c #5C4E94",
"^  c #5C4F94",
"/  c #5E4F95",
"(  c #5C4C96",
")  c #5C4C97",
"_  c #5C4D97",
"`  c #5D4D97",
"'  c #5C4E96",
"]  c #5D4E96",
"[  c #5C4E97",
"{  c #5B4B99",
"}  c #5D4B98",
"|  c #5D4A9B",
" . c #5C4C98",
".. c #5D4D98",
"X. c #5C4C99",
"o. c #5D4D99",
"O. c #5D5191",
"+. c #5E5095",
"@. c #5C5096",
"#. c #5E5096",
"$. c #796F85",
"%. c #7A6F89",
"&. c #77718F",
"*. c #776F92",
"=. c #776F95",
"-. c #796E95",
";. c #7B6D99",
":. c #767092",
">. c #766DA1",
",. c #746EA1",
"<. c #726EA5",
"1. c #756DA7",
"2. c #746FA7",
"3. c #726DAB",
"4. c #736EAA",
"5. c #746CA9",
"6. c #776CA9",
"7. c #746FA9",
"8. c #746DAA",
"9. c #746DAB",
"0. c #756EAA",
"q. c #736DAD",
"w. c #716FAF",
"e. c #766CAF",
"r. c #DFBFA3",
"t. c #EAB5A3",
"y. c #E5B3AC",
"u. c #E5B5AC",
"i. c #EAB4A8",
"p. c #E8B5AB",
"a. c #ECB4AB",
"s. c #E9B3AF",
"d. c #EAB3AE",
"f. c #E9B4AC",
"g. c #EAB4AF",
"h. c #EAB2B0",
"j. c #EBB2B2",
"k. c #CCC595",
"l. c #CCC0A0",
"z. c #DAC0A2",
"x. c #DDC0A0",
"c. c #DCC0A6",
"v. c #D7DBBD",
"b. c #EBDCBB",
"n. c #EEDCBB",
"m. c #EDF1B8",
"M. c #F4F3B7",
"N. c #F0F5B6",
"B. c #F3F3B9",
"V. c #F1F1BA",
"C. c #F0F3BB",
"Z. c #F3F2BA",
"A. c #F3F3BA",
"S. c #F3F2BB",
"D. c #F3F3BB",
"F. c #F4F2BB",
"G. c #F2F1BD",
"H. c #F0F3BC",
"J. c #F1F2BD",
"K. c #F1F3BD",
"L. c #F2F2BC",
"P. c #F3F2BC",
"I. c #F2F3BC",
"U. c #F3F2BD",
"Y. c #F2F1BE",
"T. c #F0F3BE",
"R. c #F1F3BE",
"E. c #F0F3BF",
"W. c #F1F3BF",
"Q. c #F2F3BE",
"!. c #F2F2BF",
"~. c #F3F2BF",
"^. c #F6F1BC",
"/. c #F4F2BC",
"(. c #F4F2BD",
"). c #F4F1BE",
"_. c #F5F1BE",
"`. c #F4F1BF",
"'. c #F5F1BF",
"]. c #F6F1BF",
"[. c #F5F2BE",
"{. c #F0F4BF",
"}. c #F6F4BE",
"|. c #F4F6BF",
" X c #F7F7BE",
".X c #C4BBD9",
"XX c #C3BCD9",
"oX c #D2D1C6",
"OX c #D7D7CC",
"+X c #D5CFD4",
"@X c #D4D2D7",
"#X c #DCD7D3",
"$X c #DED6D8",
"%X c #DBD5DD",
"&X c #DBD6DD",
"*X c #DBD6DE",
"=X c #DED4DF",
"-X c #DCD7DE",
";X c #F4D7C6",
":X c #F3D8C6",
">X c #FBEAC7",
",X c #FDECC6",
"<X c #FDEBC9",
"1X c #FCECCA",
"2X c #F2F1C0",
"3X c #F0F2C0",
"4X c #F1F2C0",
"5X c #F3F2C0",
"6X c #F2F2C1",
"7X c #F3F2C1",
"8X c #F2F1C2",
"9X c #F3F1C2",
"0X c #F3F1C3",
"qX c #F1F2C3",
"wX c #F2F2C2",
"eX c #F3F2C2",
"rX c #F4F1C0",
"tX c #F6F1C1",
"yX c #F6F2C0",
"uX c #F1F4C0",
"iX c #F4F1C4",
"pX c #F8F0C1",
"aX c #EFEFD3",
"sX c #EDEFD5",
"dX c #F0EED5",
"fX c #F4F2DE",
"gX c #F1EFE0",
"hX c #F2EBEB",
"jX c #F3EEEB",
"kX c None",
/* pixels */
"kXkXkXkXkXkXkXkXkXkXkXkXkXkXkXkXkXkXkXkXkXkXkXkXkXkXkXkXkXkXkXkXkXkXkXkXkXkXkXkXkXkXkXkXkXkXkXkX",
"kXkXkXkXkXkXkXkXkXkXkXkXkXkXkXkXkXkXkXkXkXkXkXkXkXkXkXkXkXkXkXkXkXkXkXkXkXkXkXkXkXkXkXkXkXkXkXkX",
"kXkXkXkXkXkXkXkXkXkXkXkXkXkXkXkXkXkXkXkXkXkXkXkXkXkXkXkXkXkXkXkXkXkXkXkXkXkXkXkXkXkXkXkXkXkXkXkX",
"kXkXkXkXkXkXkXkXkXkXkXkXkXkXkXkXkXkXkXkXkXkXkXkXkXkXkXkXkXkXkXkXkXkXkXkXkXkXkXkXkXkXkXkXkXkXkXkX",
"kXkXkXkXkXkXkXkXkXkXkXkXkXkXkXkXkXkXkXkXkXkXkXkXkXkXkXkXkXkXkXkXkXkXkXkXkXkXkXkXkXkXkXkXkXkXkXkX",
"kXkXkXkXkXkXkXkXkXkXkXkXkXkXkXkXkXkXkXkXkXkXkXkXkXkXkXkXkXkXkXkXkXkXkXkXkXkXkXkXkXkXkXkXkXkXkXkX",
"kXkXkXkXkXkXkXkXkXkXkXkXkXkXkXkXkXkXkXkXkXkXkXkXkXkXkXkXkXkXkXkXkXkXkXkXkXkXkXkXkXkXkXkXkXkXkXkX",
"kXkXkXkXkXkXkXkXkXkXkXkXkXkXkXkXkXkXkXkXkXkXkXkXkXkXkXkXkXkXkXkXkXkXkXkXkXkXkXkXkXkXkXkXkXkXkXkX",
"kXkXkXkXkXkXkXkXkXkXkXkXkXkXkXkXkXkXkXkXkXkXkXkXkXkXkXkXkXkXkXkXkXkXkXkXkXkXkXkXkXkXkXkXkXkXkXkX",
"kXkXkXkXkXkXkXkXkXkXkXkXkXkXkXkXkXkXkXkXkXkXY @.L N i 0 kXkXkXkXkXkXkXkXkXkXkXkXkXkXkXkXkXkXkXkX",
"kXkXkXkXkXkXkXkXkXkXkXkXkXkXkXkXkXkXkXkXkXkX4 f 5 d - j kXkXkXkXkXkXkXkXkXkXkXkXkXkXkXkXkXkXkXkX",
"kXkXkXkXkXkXkXkXkXkXkXkXkXkXkXkXkXkXkXkX) S 2XY.~.7XU.{.X. .kXkXkXkXkXkXkXkXkXkXkXkXkXkXkXkXkXkX",
"kXkXkXkXkXkXkXkXkXkXkXkXkXkXkXkXkXkXkXkX~ s tXL.1X,X<X>X* $ kXkXkXkXkXkXkXkXkXkXkXkXkXkXkXkXkXkX",
"kXkXkXkXkXkXkXkXkXkXkXkXkXkXkXkXkXkX+.r Q F pXF.y.s.d.t.Z.H.u #.kXkXkXkXkXkXkXkXkXkXkXkXkXkXkXkX",
"kXkXkXkXkXkXkXkXkXkXkXkXkXkXkXkXkXkX= & & % pX^.h.p.g.f.5XH.t X.kXkXkXkXkXkXkXkXkXkXkXkXkXkXkXkX",
"kXkXkXkXkXkXkXkXkXkXkXkXkXkXkXkXo.a J.D.D.D.]./.u.j.a.i./.3Xi ] kXkXkXkXkXkXkXkXkXkXkXkXkXkXkXkX",
"kXkXkXkXkXkXkXkXkXkXkXkXkXkXkXkXU s rX~.~.~.~.'.z.r.c.x.5X~.y K kXkXkXkXkXkXkXkXkXkXkXkXkXkXkXkX",
"kXkXkXkXkXkXkXkXkXkXkXkXkXkXkXkXU s rX~.~.~.7XW.H.C.T.E.~.~.y K kXkXkXkXkXkXkXkXkXkXkXkXkXkXkXkX",
"kXkXkXkXkXkXkXkXkXkXkXkXkXkXkXkXR s rX~.~.~.H.].~.].'.!.`.~.y K kXkXkXkXkXkXkXkXkXkXkXkXkXkXkXkX",
"kXkXkXkXkXkXkXkXkXkXkXkXkXkXkXkXT B ).~.~.~.~.~.~.~.~.~.~.~.y G kXkXkXkXkXkXkXkXkXkXkXkXkXkXkXkX",
"kXkXkXkXkXkXkXkXkXkXkXkXkXkXo @ m s ).~.~.~.~.~.~.~.~.~.~.~.y U + O kXkXkXkXkXkXkXkXkXkXkXkXkXkX",
"kXkXkXkXkXkXkXkXkXkXkXkXkXkX{ ) q s (.~.~.~.~.~.~.~.~.~.~.~.y Z o.( kXkXkXkXkXkXkXkXkXkXkXkXkXkX",
"kXkXkXkXkXkXkXkXkXkXkXkXkXkXc V +XoX}.G.$.%.~.~.~.~.~.~.~.~.y _ kXkXkXkXkXkXkXkXkXkXkXkXkXkXkXkX",
"kXkXkXkXkXkXkXkXkXkXkXkXkXkXV M I.9X[.m.o.P ~.~.~.~.~.~.~.~.y x kXkXkXkXkXkXkXkXkXkXkXkXkXkXkXkX",
"kXkXkXkXkXkXkXkXkXkXkXkXkXkXV n uX~.!. XjXhX~.~.~.~.~.~.~.~.y [ # X kXkXkXkXkXkXkXkXkXkXkXkXkXkX",
"kXkXkXkXkXkXkXkXkXkXkXkXkXkXB n Q.8X~.~.~.~.Y.Y.Y.yXE.7X5X~.y J ..9 kXkXkXkXkXkXkXkXkXkXkXkXkXkX",
"kXkXkXkXkXkXkXkXkXkXkXkXkXkXB V Q.8X~.~.~.~.n.n.n.b.P.4X7X~.y ^ kXkXkXkXkXkXkXkXkXkXkXkXkXkXkXkX",
"kXkXkXkXkXkXkXkXkXkXkXkXkXkXc F K.8X~.~.~.~.;X;X;X:X_.W.7X~.7 ' kXkXkXkXkXkXkXkXkXkXkXkXkXkXkXkX",
"kXkXkXkXkXkXkXkXkXkXkXkXkXkXkXkX; : =.:.:.:.;.;.;.-.&.*.> g kXkXkXkXkXkXkXkXkXkXkXkXkXkXkXkXkXkX",
"kXkXkXkXkXkXkXkXkXkXkXkXkXkXkXkXX.k e.9.9.9.4.4.4.3.<.q.l I kXkXkXkXkXkXkXkXkXkXkXkXkXkXkXkXkXkX",
"kXkXkXkXkXkXkXkXkXkXkXkXkXkXkXkXk.l.1.8.8.8.6.6.6.>.v.OX.XXX.   kXkXkXkXkXkXkXkXkXkXkXkXkXkXkXkX",
"kXkXkXkXkXkXkXkXkXkXkXkXkXkXkXkX< 3 5.w.0.2.7.7.7.,.|.F.=X&Xw H kXkXkXkXkXkXkXkXkXkXkXkXkXkXkXkX",
"kXkXkXkXkXkXkXkXkXkXkXkXkXkXkXkX< 1 e v gXsXdXaXdXfXV.wX=X&Xw H kXkXkXkXkXkXkXkXkXkXkXkXkXkXkXkX",
"kXkXkXkXkXkXkXkXkXkXkXkXkXkXkXkX, 2 C } I.5X'.'.'.0XB.qX=X&XB H kXkXkXkXkXkXkXkXkXkXkXkXkXkXkXkX",
"kXkXkXkXkXkXkXkXkXkXkXkXkXkXkXkXkXkX| B N.A.~.~.~.R.M.6X8 V kXkXkXkXkXkXkXkXkXkXkXkXkXkXkXkXkXkX",
"kXkXkXkXkXkXkXkXkXkXkXkXkXkXkXkXkXkX] i eX0X`.`.`.S.iXQ.! S kXkXkXkXkXkXkXkXkXkXkXkXkXkXkXkXkXkX",
"kXkXkXkXkXkXkXkXkXkXkXkXkXkXkXkXkXkXkXkX6 t $X$X$X#Xp h kXkXkXkXkXkXkXkXkXkXkXkXkXkXkXkXkXkXkXkX",
"kXkXkXkXkXkXkXkXkXkXkXkXkXkXkXkXkXkXkXkX` ~ %X-X*X@Xz E kXkXkXkXkXkXkXkXkXkXkXkXkXkXkXkXkXkXkXkX",
"kXkXkXkXkXkXkXkXkXkXkXkXkXkXkXkXkXkXkXkXkXkXA b F D kXkXkXkXkXkXkXkXkXkXkXkXkXkXkXkXkXkXkXkXkXkX",
"kXkXkXkXkXkXkXkXkXkXkXkXkXkXkXkXkXkXkXkXkXkX/ J W O.kXkXkXkXkXkXkXkXkXkXkXkXkXkXkXkXkXkXkXkXkXkX",
"kXkXkXkXkXkXkXkXkXkXkXkXkXkXkXkXkXkXkXkXkXkXkXkXkXkXkXkXkXkXkXkXkXkXkXkXkXkXkXkXkXkXkXkXkXkXkXkX",
"kXkXkXkXkXkXkXkXkXkXkXkXkXkXkXkXkXkXkXkXkXkXkXkXkXkXkXkXkXkXkXkXkXkXkXkXkXkXkXkXkXkXkXkXkXkXkXkX",
"kXkXkXkXkXkXkXkXkXkXkXkXkXkXkXkXkXkXkXkXkXkXkXkXkXkXkXkXkXkXkXkXkXkXkXkXkXkXkXkXkXkXkXkXkXkXkXkX",
"kXkXkXkXkXkXkXkXkXkXkXkXkXkXkXkXkXkXkXkXkXkXkXkXkXkXkXkXkXkXkXkXkXkXkXkXkXkXkXkXkXkXkXkXkXkXkXkX",
"kXkXkXkXkXkXkXkXkXkXkXkXkXkXkXkXkXkXkXkXkXkXkXkXkXkXkXkXkXkXkXkXkXkXkXkXkXkXkXkXkXkXkXkXkXkXkXkX",
"kXkXkXkXkXkXkXkXkXkXkXkXkXkXkXkXkXkXkXkXkXkXkXkXkXkXkXkXkXkXkXkXkXkXkXkXkXkXkXkXkXkXkXkXkXkXkXkX",
"kXkXkXkXkXkXkXkXkXkXkXkXkXkXkXkXkXkXkXkXkXkXkXkXkXkXkXkXkXkXkXkXkXkXkXkXkXkXkXkXkXkXkXkXkXkXkXkX",
"kXkXkXkXkXkXkXkXkXkXkXkXkXkXkXkXkXkXkXkXkXkXkXkXkXkXkXkXkXkXkXkXkXkXkXkXkXkXkXkXkXkXkXkXkXkXkXkX"
};
