/* XPM */
static char *result[] = {
/* columns rows colors chars-per-pixel */
"48 48 247 2 ",
"   c #514773",
".  c #544B72",
"X  c #544975",
"o  c #51457D",
"O  c #544978",
"+  c #544B78",
"@  c #554B79",
"#  c #564A7A",
"$  c #574F7B",
"%  c #574B7E",
"&  c #E4E176",
"*  c #E9E374",
"=  c #E4E17B",
"-  c #E7E679",
";  c #E2E17E",
":  c #ECE07A",
">  c #E9E37E",
",  c #544980",
"<  c #564C82",
"1  c #574C83",
"2  c #564C84",
"3  c #584D80",
"4  c #584D85",
"5  c #574A8C",
"6  c #5C4F89",
"7  c #594B8C",
"8  c #594B8D",
"9  c #5A4B8D",
"0  c #594E8D",
"q  c #5A4E8C",
"w  c #5B4F8C",
"e  c #5B4F8D",
"r  c #5A4C8E",
"t  c #5B4D8E",
"y  c #5B4D8F",
"u  c #5B4F8E",
"i  c #5D4D8D",
"p  c #5F4D8C",
"a  c #5E4E8C",
"s  c #5D4D8E",
"d  c #5D4D8F",
"f  c #5D4E8E",
"g  c #5C4F8E",
"h  c #5C4E8F",
"j  c #5C4F8F",
"k  c #5E4F8E",
"l  c #5D5087",
"z  c #5C508B",
"x  c #564E90",
"c  c #594A93",
"v  c #5B4B92",
"b  c #5A4B93",
"n  c #5B4C91",
"m  c #5B4D91",
"M  c #5B4E90",
"N  c #5B4F90",
"B  c #5B4E91",
"V  c #5A4D92",
"C  c #5B4D92",
"Z  c #5B4E92",
"A  c #5D4D90",
"S  c #5D4C91",
"D  c #5D4D91",
"F  c #5F4D90",
"G  c #5D4E90",
"H  c #5C4F90",
"J  c #5D4F90",
"K  c #5C4E91",
"L  c #5D4F91",
"P  c #5C4D92",
"I  c #5C4D93",
"U  c #5D4D93",
"Y  c #5C4E92",
"T  c #5D4F92",
"R  c #5C4F93",
"E  c #5D4F93",
"W  c #5A4A96",
"Q  c #5B4B96",
"!  c #5A4A97",
"~  c #5B4C94",
"^  c #5B4D94",
"/  c #5B4D95",
"(  c #5A4E94",
")  c #5B4C96",
"_  c #5B4D96",
"`  c #5B4C97",
"'  c #5B4D97",
"]  c #5A4E97",
"[  c #5C4D94",
"{  c #5C4C95",
"}  c #5C4D95",
"|  c #5C4E95",
" . c #5E4E95",
".. c #5D4C96",
"X. c #5C4D96",
"o. c #5D4D96",
"O. c #5C4D97",
"+. c #5C4E96",
"@. c #5B4B99",
"#. c #5A4A9B",
"$. c #5D4B98",
"%. c #5C4B9A",
"&. c #5C4B9B",
"*. c #5B4D98",
"=. c #5B4C99",
"-. c #5B4D99",
";. c #5C4C99",
":. c #5F4D99",
">. c #5E4E98",
",. c #5C4C9A",
"<. c #5D4C9A",
"1. c #5E4C9A",
"2. c #5B4B9C",
"3. c #5F4A9D",
"4. c #5E4D9C",
"5. c #5B5091",
"6. c #5E5193",
"7. c #5C5094",
"8. c #60528F",
"9. c #756FA2",
"0. c #746EA5",
"q. c #776EA4",
"w. c #746DA7",
"e. c #776DA7",
"r. c #746DA8",
"t. c #746DAA",
"y. c #756DAA",
"u. c #746DAB",
"i. c #736DAD",
"p. c #736DAF",
"a. c #746DAD",
"s. c #776CAD",
"d. c #776CAE",
"f. c #786BAE",
"g. c #776CB0",
"h. c #DDBBA6",
"j. c #DEBBA7",
"k. c #DCBCA5",
"l. c #DEBBA8",
"z. c #E3B7AB",
"x. c #E5B7AB",
"c. c #E6B7AB",
"v. c #E5B6AD",
"b. c #E7B5AF",
"n. c #E5B6AE",
"m. c #E7B5B0",
"M. c #E4E181",
"N. c #F0D8BE",
"B. c #F3D9BF",
"V. c #EEF3B3",
"C. c #EFF2BE",
"Z. c #EFF2BF",
"A. c #F0F5B5",
"S. c #F2F5B5",
"D. c #F3F4B7",
"F. c #F3F1BB",
"G. c #F3F3BB",
"H. c #F4F2B9",
"J. c #F4F2BB",
"K. c #F5F2BB",
"L. c #F0F4BB",
"P. c #F4F4BB",
"I. c #F6F6BB",
"U. c #F2F0BD",
"Y. c #F3F0BD",
"T. c #F0F3BC",
"R. c #F1F3BC",
"E. c #F1F3BD",
"W. c #F2F2BC",
"Q. c #F3F2BC",
"!. c #F2F2BD",
"~. c #F3F2BD",
"^. c #F2F3BD",
"/. c #F3F3BD",
"(. c #F0F3BF",
"). c #F1F3BF",
"_. c #F2F2BE",
"`. c #F3F2BE",
"'. c #F2F2BF",
"]. c #F3F2BF",
"[. c #F4F1BC",
"{. c #F4F2BC",
"}. c #F4F2BD",
"|. c #F4F3BD",
" X c #F4F0BE",
".X c #F5F1BF",
"XX c #F6F2BF",
"oX c #F0F4BE",
"OX c #F1F6BF",
"+X c #DAD6D9",
"@X c #D9D4DE",
"#X c #DBD5DE",
"$X c #DBD7DF",
"%X c #DCD6DD",
"&X c #DDD7DD",
"*X c #DCD6DE",
"=X c #DAD9D9",
"-X c #DDD8DB",
";X c #F3D9C0",
":X c #F1D8C5",
">X c #F0D9C5",
",X c #F3D8C5",
"<X c #EDEEC4",
"1X c #EFEFC4",
"2X c #F5EEC0",
"3X c #F9EFC3",
"4X c #F9EEC5",
"5X c #FAEEC6",
"6X c #F0EFCB",
"7X c #EEF0C6",
"8X c #F1F2C1",
"9X c #F3F2C0",
"0X c #F3F2C1",
"qX c #F0F1C2",
"wX c #F2F0C2",
"eX c #F2F1C2",
"rX c #F3F2C2",
"tX c #F4F1C0",
"yX c #F5F1C0",
"uX c #F4F2C0",
"iX c #F5F2C0",
"pX c #F4F3C0",
"aX c #F4F1C2",
"sX c #F4F1C3",
"dX c #F3F1C4",
"fX c #F2F2C4",
"gX c #F2F1C6",
"hX c #F5F0C7",
"jX c #F4F1C7",
"kX c #F3F0C8",
"lX c #F3F2C9",
"zX c #F3F0CA",
"xX c #F1F0CE",
"cX c #F3EDD2",
"vX c #F4EFD0",
"bX c #F0EDDD",
"nX c #F1EEDC",
"mX c #F2EEDD",
"MX c #F2EDDF",
"NX c #F3EDDF",
"BX c #D6D1E2",
"VX c #D7D3E2",
"CX c #DBD7E0",
"ZX c #DED3E4",
"AX c #F2ECE5",
"SX c #F0EFE8",
"DX c None",
/* pixels */
"DXDXDXDXDXDXDXDXDXDXDXDXDXDXDXDXDXDXDXDXDXDXDXDXDXDXDXDXDXDXDXDXDXDXDXDXDXDXDXDXDXDXDXDXDXDXDXDX",
"DXDXDXDXDXDXDXDXDXDXDXDXDXDXDXDXDXDXDXDXDXDXDXDXDXDXDXDXDXDXDXDXDXDXDXDXDXDXDXDXDXDXDXDXDXDXDXDX",
"DXDXDXDXDXDXDXDXDXDXDXDXDXDXDXDXDXDXDXDXDXDXDXDXDXDXDXDXDXDXDXDXDXDXDXDXDXDXDXDXDXDXDXDXDXDXDXDX",
"DXDXDXDXDXDXDXDXDXDXDXDXDXDXDXDXDXDXDXDXDXDXDXDXDXDXDXDXDXDXDXDXDXDXDXDXDXDXDXDXDXDXDXDXDXDXDXDX",
"DXDXDXDXDXDXDXDXDXDXDXDXDXDXDXDXDXDXDXDXDXDXDXDXDXDXDXDXDXDXDXDXDXDXDXDXDXDXDXDXDXDXDXDXDXDXDXDX",
"DXDXDXDXDXDXDXDXDXDXDXDXDXDXDXDXDXDXDXDXDXDXDXDXDXDXDXDXDXDXDXDXDXDXDXDXDXDXDXDXDXDXDXDXDXDXDXDX",
"DXDXDXDXDXDXDXDXDXDXDXDXDXDXDXDXDXDXDXDXDXDXDXDXDXDXDXDXDXDXDXDXDXDXDXDXDXDXDXDXDXDXDXDXDXDXDXDX",
"DXDXDXDXDXDXDXDXDXDXDXDXDXDXDXDXDXDXDXDXDXDXDXDXDXDXDXDXDXDXDXDXDXDXDXDXDXDXDXDXDXDXDXDXDXDXDXDX",
"DXDXDXDXDXDXDXDXDXDXDXDXDXDXDXDXDXDXDXDXX . @ + O   DXDXDXDXDXDXDXDXDXDXDXDXDXDXDXDXDXDXDXDXDXDX",
"DXDXDXDXDXDXDXDXDXDXDXDXDXDXDXDXDXDXDXDX-.Y ] ( ( r DXDXDXDXDXDXDXDXDXDXDXDXDXDXDXDXDXDXDXDXDXDX",
"DXDXDXDXDXDXDXDXDXDXDXDXDXDXDXDXDXDX3 # mXAXMXMXNXSXo , DXDXDXDXDXDXDXDXDXDXDXDXDXDXDXDXDXDXDXDX",
"DXDXDXDXDXDXDXDXDXDXDXDXDXDXDXDXDXDXP 0 U.}.uX9XC.Q.[ V DXDXDXDXDXDXDXDXDXDXDXDXDXDXDXDXDXDXDXDX",
"DXDXDXDXDXDXDXDXDXDXDXDXDXDXDXDX1 < bXcXl.k.j.h.XXjXu N 4 $ DXDXDXDXDXDXDXDXDXDXDXDXDXDXDXDXDXDX",
"DXDXDXDXDXDXDXDXDXDXDXDXDXDXDXDX) h tXQ.b.z.x.m.|.D.{ I $.A DXDXDXDXDXDXDXDXDXDXDXDXDXDXDXDXDXDX",
"DXDXDXDXDXDXDXDXDXDXDXDXDXDXDXDX_ h tXQ.b.z.x.m.|.I.6XxXvXnX% 2 DXDXDXDXDXDXDXDXDXDXDXDXDXDXDXDX",
"DXDXDXDXDXDXDXDXDXDXDXDXDXDXDXDX_ h tX`.v.x.c.n.pX].[.{..XW.k X.DXDXDXDXDXDXDXDXDXDXDXDXDXDXDXDX",
"DXDXDXDXDXDXDXDXDXDXDXDXDXDXDXDXO.h tXY.4X3X3X5X X].].].].].a +.DXDXDXDXDXDXDXDXDXDXDXDXDXDXDXDX",
"DXDXDXDXDXDXDXDXDXDXDXDXDXDXDXDX_ h tX8X9X}.}.].8X].].].].].a +.DXDXDXDXDXDXDXDXDXDXDXDXDXDXDXDX",
"DXDXDXDXDXDXDXDXDXDXDXDXDXDXDXDX' h tXK.R.(.(.T.J.].].].].].a +.DXDXDXDXDXDXDXDXDXDXDXDXDXDXDXDX",
"DXDXDXDXDXDXDXDXDXDXDXDXDXDXDXDX^ w }.].].].].].].].].].].].a | DXDXDXDXDXDXDXDXDXDXDXDXDXDXDXDX",
"DXDXDXDXDXDXDXDXDXDXDXDXDXDX7 c / h tX].].].].].].].].].].].a +.5 9 DXDXDXDXDXDXDXDXDXDXDXDXDXDX",
"DXDXDXDXDXDXDXDXDXDXDXDXDXDX%.Q H w }.].].].].].].].].].].].a B ~ T DXDXDXDXDXDXDXDXDXDXDXDXDXDX",
"DXDXDXDXDXDXDXDXDXDXDXDXDXDXDXDXg S _.].].].].].].wX:.p kXS.1X<X8.2.DXDXDXDXDXDXDXDXDXDXDXDXDXDX",
"DXDXDXDXDXDXDXDXDXDXDXDXDXDXDXDX4.f eX].].].].].].V.J ..9XQ.~.!.l z DXDXDXDXDXDXDXDXDXDXDXDXDXDX",
"DXDXDXDXDXDXDXDXDXDXDXDXDXDX8 v 6.D '.].].].].].].2XL.lX~.`.H./.U L DXDXDXDXDXDXDXDXDXDXDXDXDXDX",
"DXDXDXDXDXDXDXDXDXDXDXDXDXDXC <.M h sX].].].F.F.F.yXOXaX].].].).d y DXDXDXDXDXDXDXDXDXDXDXDXDXDX",
"DXDXDXDXDXDXDXDXDXDXDXDXDXDXDXDXM I }.].].].:X>X:XN.0XtX].].].).s y DXDXDXDXDXDXDXDXDXDXDXDXDXDX",
"DXDXDXDXDXDXDXDXDXDXDXDXDXDXDXDX` t iX].].].;XB.;X,X_..X].].].).s y DXDXDXDXDXDXDXDXDXDXDXDXDXDX",
"DXDXDXDXDXDXDXDXDXDXDXDXDXDXDXDXDXDX7.*.y.u.t.t.t.t.t.t.e.a.G x DXDXDXDXDXDXDXDXDXDXDXDXDXDXDXDX",
"DXDXDXDXDXDXDXDXDXDXDXDXDXDXDXDXDXDX} =.q.s.t.t.t.t.t.t.f.t.F  .DXDXDXDXDXDXDXDXDXDXDXDXDXDXDXDX",
"DXDXDXDXDXDXDXDXDXDXDXDXDXDXDXDX,.n BX-XZ.qXt.t.t.t.t.t.d.9.; & DXDXDXDXDXDXDXDXDXDXDXDXDXDXDXDX",
"DXDXDXDXDXDXDXDXDXDXDXDXDXDXDXDX~ &.#XCXQ.0Xt.r.t.i.0.p.w.g.= * DXDXDXDXDXDXDXDXDXDXDXDXDXDXDXDX",
"DXDXDXDXDXDXDXDXDXDXDXDXDXDXDXDXo.;.+X$XdXG.{.G.{.Q.hXqXR 5.> : DXDXDXDXDXDXDXDXDXDXDXDXDXDXDXDX",
"DXDXDXDXDXDXDXDXDXDXDXDXDXDXDXDXb ! @X=XP.0XR.R.R.E.~.A.3.i M.- DXDXDXDXDXDXDXDXDXDXDXDXDXDXDXDX",
"DXDXDXDXDXDXDXDXDXDXDXDXDXDXDXDXDXDX} Z _.J.].].].rXH.fXK _ DXDXDXDXDXDXDXDXDXDXDXDXDXDXDXDXDXDX",
"DXDXDXDXDXDXDXDXDXDXDXDXDXDXDXDXDXDXj >.oXzX!.!.!.^.gX7X} y DXDXDXDXDXDXDXDXDXDXDXDXDXDXDXDXDXDX",
"DXDXDXDXDXDXDXDXDXDXDXDXDXDXDXDXDXDXDXDX1.h *X*X*XZX6 #.DXDXDXDXDXDXDXDXDXDXDXDXDXDXDXDXDXDXDXDX",
"DXDXDXDXDXDXDXDXDXDXDXDXDXDXDXDXDXDXDXDXq *.%X&X%XVX@.e DXDXDXDXDXDXDXDXDXDXDXDXDXDXDXDXDXDXDXDX",
"DXDXDXDXDXDXDXDXDXDXDXDXDXDXDXDXDXDXDXDXDXDXJ J h W DXDXDXDXDXDXDXDXDXDXDXDXDXDXDXDXDXDXDXDXDXDX",
"DXDXDXDXDXDXDXDXDXDXDXDXDXDXDXDXDXDXDXDXDXDXE m m v DXDXDXDXDXDXDXDXDXDXDXDXDXDXDXDXDXDXDXDXDXDX",
"DXDXDXDXDXDXDXDXDXDXDXDXDXDXDXDXDXDXDXDXDXDXDXDXDXDXDXDXDXDXDXDXDXDXDXDXDXDXDXDXDXDXDXDXDXDXDXDX",
"DXDXDXDXDXDXDXDXDXDXDXDXDXDXDXDXDXDXDXDXDXDXDXDXDXDXDXDXDXDXDXDXDXDXDXDXDXDXDXDXDXDXDXDXDXDXDXDX",
"DXDXDXDXDXDXDXDXDXDXDXDXDXDXDXDXDXDXDXDXDXDXDXDXDXDXDXDXDXDXDXDXDXDXDXDXDXDXDXDXDXDXDXDXDXDXDXDX",
"DXDXDXDXDXDXDXDXDXDXDXDXDXDXDXDXDXDXDXDXDXDXDXDXDXDXDXDXDXDXDXDXDXDXDXDXDXDXDXDXDXDXDXDXDXDXDXDX",
"DXDXDXDXDXDXDXDXDXDXDXDXDXDXDXDXDXDXDXDXDXDXDXDXDXDXDXDXDXDXDXDXDXDXDXDXDXDXDXDXDXDXDXDXDXDXDXDX",
"DXDXDXDXDXDXDXDXDXDXDXDXDXDXDXDXDXDXDXDXDXDXDXDXDXDXDXDXDXDXDXDXDXDXDXDXDXDXDXDXDXDXDXDXDXDXDXDX",
"DXDXDXDXDXDXDXDXDXDXDXDXDXDXDXDXDXDXDXDXDXDXDXDXDXDXDXDXDXDXDXDXDXDXDXDXDXDXDXDXDXDXDXDXDXDXDXDX",
"DXDXDXDXDXDXDXDXDXDXDXDXDXDXDXDXDXDXDXDXDXDXDXDXDXDXDXDXDXDXDXDXDXDXDXDXDXDXDXDXDXDXDXDXDXDXDXDX"
};
