/* XPM */
static char *ee49961324d94541c44daa1c08730c1f2PC3fjMdOHr1nDCE[] = {
/* columns rows colors chars-per-pixel */
"48 48 134 2 ",
"   c None",
".  c #5E4242",
"X  c #74534E",
"o  c #7B574C",
"O  c #735251",
"+  c #7C5950",
"@  c #7A5A58",
"#  c #7C6459",
"$  c #764D61",
"%  c #784B63",
"&  c #7D5963",
"*  c #805956",
"=  c #8B5F5C",
"-  c #8E635C",
";  c #91625D",
":  c #926A5B",
">  c #9A6C5E",
",  c #8C6560",
"<  c #946561",
"1  c #996561",
"2  c #956C60",
"3  c #937066",
"4  c #997567",
"5  c #96736E",
"6  c #947C6B",
"7  c #9F7E6B",
"8  c #947674",
"9  c #A37E6C",
"0  c #9C827C",
"q  c #AF866E",
"w  c #A78F74",
"e  c #A1837C",
"r  c #C8976D",
"t  c #C39A6C",
"y  c #C3A867",
"u  c #C3A769",
"i  c #C5A96B",
"p  c #D6BE67",
"a  c #D4BD6B",
"s  c #D5C166",
"d  c #D5C16A",
"f  c #D4C472",
"g  c #C67F86",
"h  c #C77F88",
"j  c #A28080",
"k  c #A78887",
"l  c #AA8A87",
"z  c #A48D8C",
"x  c #AB9485",
"c  c #B59D84",
"v  c #B99E87",
"b  c #BCA38A",
"n  c #BAB9BE",
"m  c #C58085",
"M  c #CDAC8E",
"N  c #CFB182",
"B  c #D0B081",
"V  c #D7AF9C",
"C  c #D8AF9D",
"Z  c #D3BC97",
"A  c #DBBD9A",
"S  c #DCCC87",
"D  c #DDD183",
"F  c #DCD28A",
"G  c #DFC194",
"H  c #D4C49F",
"J  c #DFCE9C",
"K  c #E1C094",
"L  c #E1CD9C",
"P  c #D6C5A4",
"I  c #DACDA6",
"U  c #D4C6A9",
"Y  c #DDCCAB",
"T  c #DAD1B0",
"R  c #E6CFA4",
"E  c #E9CEA5",
"W  c #E8CEA8",
"Q  c #E6D0A3",
"!  c #E8D2A5",
"~  c #E7D7A8",
"^  c #E8D6A9",
"/  c #E9D9AC",
"(  c #E7DBB3",
")  c #EFE5B5",
"_  c #EEE9B5",
"`  c #F1E7B6",
"'  c #F2EDB6",
"]  c #F1EDBC",
"[  c #F3F3BF",
"{  c #F3F2BF",
"}  c #F1F3BD",
"|  c #F4F2BC",
" . c #F4F2BD",
".. c #F5F0BE",
"X. c #F4F1BF",
"o. c #F5F1BF",
"O. c #F4F2BE",
"+. c #F5F2BE",
"@. c #F4F2BF",
"#. c #F6F2BE",
"$. c #F0F4BD",
"%. c #F2F2BB",
"&. c #BEBDC3",
"*. c #CBBCC2",
"=. c #C1C0C5",
"-. c #CEC2C6",
";. c #CFC7C7",
":. c #CDC3C5",
">. c #D6CFD3",
",. c #D2D2D6",
"<. c #D4D1D5",
"1. c #D9D1D3",
"2. c #D9D0D7",
"3. c #DAD0D7",
"4. c #D4D3D9",
"5. c #DAD7DE",
"6. c #D7D9DC",
"7. c #D8D8DE",
"8. c #D9D8DF",
"9. c #F4EFC2",
"0. c #F1F2C0",
"q. c #F0F3C0",
"w. c #F2F2C0",
"e. c #F3F2C0",
"r. c #F3F0C2",
"t. c #F3F2C2",
"y. c #F4F1C0",
"u. c #F5F1C0",
"i. c #F5F1C1",
"p. c #F4F2C0",
"a. c #DBD7E0",
"s. c #DAD7E1",
"d. c #DBD7E1",
"f. c #D9D8E0",
/* pixels */
"                                                                                                ",
"                                                                                                ",
"                                                                                                ",
"                                                                                                ",
"                                                                                                ",
"                                                                                                ",
"                                              ; - - - - - -                                     ",
"                                              ; - - - - - ;                                     ",
"                                              1 1 1 1 1 1 1                                     ",
"                                          - - g h h h h h g ; - .                               ",
"                                          - ; m m m m m m m < - O                               ",
"                                        # c c C V V V V V C v c 6                               ",
"                                    = - b O.w.{ { w.w.w.w.w.{ w.P - ;                           ",
"                                    = - b { { u.w.{ O.{ { { u.O.H - ;                           ",
"                                @ + I Y ( { w.8 8 T w.{ { w.0 8 x I I o *                       ",
"                                - - ] { { { O.$ % U O.{ w.%.& $ 0 { u.- -                       ",
"                                - - ] { { { 9.$ $ U O.{ O.O.& $ 0 { { - -                       ",
"                                - - ] { { { { ] ] %.O.' f d a a S w.{ - -                       ",
"                                - ; ] u.{ { { { { { { ' s d d d D { { - -                       ",
"                                ; - ] { { { { { { { { ' d d d d F { { - -                       ",
"                          O - 7 { { u.{ { { { { { { O.w.O.{ { { O.{ { - -                       ",
"                          X - 9 { { { { { { { { { { { { { { { { { { { - -                       ",
"                          # 4 w { { { { { { { { { { { { { { { { { { { - -                       ",
"                      ; ; ( { $.{ { { { { { { { { { { { { { { { { { { - -                       ",
"                      - ; ( w.{ { { { { { { { { { { { { { { { { { { w.- -                       ",
"                      - ; R _ _ { { { { { { { L J _ O.{ { { { { ] ) _ ; -                       ",
"                      - ; A E ~ { { { { { { { r r ~ O.{ { { { { ` E R ; -                       ",
"                      - - A E ^ w.w.w.w.w.u.O.t t ~ { { { { { w.` E R ; -                       ",
"                          3 9 q N B B B B B N G K ! / / / / / ~ Z 9 9                           ",
"                          X - > t t t t t t t E R E E E E E E R M ; ;                           ",
"                          X - > t t t r r r t E R E W E E E W Q M ; ;                           ",
"                          ;.3.*.- ; a p p p a : 2 i d d d d 2 1 l 3.1.                          ",
"                          ,.a.-.; - a d d d d - - y d s s s : - k a.7.                          ",
"                          4.7.-., - a d d d a - ; u d d d d : - z 7.7.                          ",
"                      7.7.7.7.d.8.6.; - - - ; 7.7.e - - - ; >.8.8.7.7.7.7.                      ",
"                      7.7.7.7.7.7.d.< - - - ; 7.a.j - - - ; <.a.7.7.7.7.d.                      ",
"                      8.7.d.7.7.7.7.8 5 5 5 8 7.7.z 5 5 5 8 <.7.7.7.7.7.7.                      ",
"                          ,.d.7.7.d.7.d.7.7.7.d.7.7.d.7.7.7.d.7.7.7.7.                          ",
"                          ,.d.7.7.7.7.7.7.7.7.7.7.7.7.7.7.7.7.7.7.7.7.                          ",
"                            &.&.&.&.&.&.&.&.&.&.&.=.&.n &.&.&.&.&.&.n                           ",
"                                                                                                ",
"                                                                                                ",
"                                                                                                ",
"                                                                                                ",
"                                                                                                ",
"                                                                                                ",
"                                                                                                ",
"                                                                                                "
};
