/* XPM */
static char *d0fdea81110f4b88a751fb03f7c1fd02w6I2mUJuyJogkOvv[] = {
/* columns rows colors chars-per-pixel */
"48 48 111 2 ",
"   c None",
".  c #6E534B",
"X  c #724E5D",
"o  c #6E5155",
"O  c #6F5158",
"+  c #715158",
"@  c #764D62",
"#  c #8F5C5D",
"$  c #866757",
"%  c #8C6355",
"&  c #8D635B",
"*  c #83685E",
"=  c #926352",
"-  c #92615C",
";  c #916A58",
":  c #825C60",
">  c #856462",
",  c #8B6361",
"<  c #926160",
"1  c #AE6F70",
"2  c #A97170",
"3  c #AB9377",
"4  c #AB9278",
"5  c #C19C5F",
"6  c #C09B65",
"7  c #CA966E",
"8  c #C39A6D",
"9  c #C79770",
"0  c #C39A71",
"q  c #D5BF6E",
"w  c #D8BF6E",
"e  c #D9BD74",
"r  c #CFC368",
"t  c #D5C166",
"y  c #D8C160",
"u  c #D5C16A",
"i  c #CEC177",
"p  c #C67F8A",
"a  c #B49D9D",
"s  c #BEAD8A",
"d  c #BEA791",
"f  c #C68085",
"g  c #C0AA8F",
"h  c #EDCC9F",
"j  c #EAD09B",
"k  c #E7CFA6",
"l  c #E9CEA4",
"z  c #E6CEA8",
"x  c #EBCDAB",
"c  c #E4D1A5",
"v  c #E8D0A3",
"b  c #EBCCB0",
"n  c #F5EFBF",
"m  c #FBEFBE",
"M  c #EFF4BD",
"N  c #F9F2B4",
"B  c #F3F2BF",
"V  c #F8F0BC",
"C  c #D6D6DC",
"Z  c #DDD7DC",
"A  c #DCD7DD",
"S  c #DAD7DE",
"D  c #D5DAD9",
"F  c #D5DADA",
"G  c #D5DADD",
"H  c #D5D9DF",
"J  c #D9D9DB",
"K  c #D9D8DD",
"L  c #DBD8DC",
"P  c #D9D8DE",
"I  c #D9D8DF",
"U  c #DAD9DF",
"Y  c #D9D8DF",
"T  c #E0D6D8",
"R  c #E2D4DF",
"E  c #F6EFC3",
"W  c #F7EFC3",
"Q  c #F7EFC6",
"!  c #F9EFC3",
"~  c #FEEEC2",
"^  c #FCEEC6",
"/  c #FCECC9",
"(  c #FEECC8",
")  c #F1F2C0",
"_  c #F0F3C0",
"`  c #F0F2C1",
"'  c #F1F2C1",
"]  c #F3F2C0",
"[  c #F2F2C1",
"{  c #F3F2C1",
"}  c #F0F3C3",
"|  c #F3F2C2",
" . c #F4F1C0",
".. c #F5F1C0",
"X. c #F5F1C1",
"o. c #F6F1C0",
"O. c #F4F2C0",
"+. c #F5F2C1",
"@. c #F5F1C2",
"#. c #F4F1C3",
"$. c #F5F1C3",
"%. c #F7F0C2",
"&. c #F0F4C0",
"*. c #F3F1C6",
"=. c #F8EED0",
"-. c #D9D7E0",
";. c #D5D9E1",
":. c #D6D9E0",
">. c #D9D8E1",
",. c #DAD8E0",
"<. c #D9D8E0",
/* pixels */
"                                                                                                ",
"                                                                                                ",
"                                                                                                ",
"                                                                                                ",
"                                                                                                ",
"                                                                                                ",
"                                                                                                ",
"                                                                                                ",
"                                                                                                ",
"                                                                                                ",
"                                                                                                ",
"                                              # - - & - - <                                     ",
"                                              - & & & & & -                                     ",
"                                              1 2 2 2 2 2 1                                     ",
"                                          & < p p p p p p p < & >                               ",
"                                          < - f f f f f f f - < :                               ",
"                                    < - 3 B B V +.+.+.+.+.V B B / - -                           ",
"                                    - & 4 +.M +.*.} V B B B +.V ~ & -                           ",
"                                > % W / W B +.X X =.} B B B o X . V n % &                       ",
"                                & & B B B B V @ @ ^ V B } B @ X O B +.& &                       ",
"                                & & B B B B +.+ X Q B B N +.X @ . B +.& &                       ",
"                                & & B B B B } B } B V V y u w t r B +.& &                       ",
"                                - < +.B B B B B B B B V t t t u i B +.& &                       ",
"                          , % ; B +.+.B B B B B B B B } V &.B V V V +.& &                       ",
"                          & & & B B B B B B B B B B B B B B B B B B +.& &                       ",
"                          d g s B B B B B B B B B B B B B B B B B B +.& &                       ",
"                      & & ! B B B B B B B B V B B B B B B B B B B B B - &                       ",
"                      & - m V V B B B B B B B V V V V B B B B B B V B < &                       ",
"                      & - l l c B B B B B B B 7 8 m V B B B B B m l c < &                       ",
"                      - , x x c } } } } } } V 8 8 m B B B B B } V l c - &                       ",
"                          % - = 8 8 8 8 8 8 8 l h v c c c c c c x % %                           ",
"                          & & - 8 8 8 8 8 8 0 l z k k k k l k k x & -                           ",
"                          > , , 9 0 5 8 8 8 6 k l j v k k k b c x & ,                           ",
"                          C -.R - & t u u u t - = e t t t q - & * J :.                          ",
"                          I S T - & u u u u u & & e u u u u & & > >.I                           ",
"                      I I I I >.Z F - , , , - F H $ - , , - I S Z I I S I                       ",
"                      I I I I I I :.- , , , - H >., & , , - I S I I I I >.                      ",
"                      C C I I I I I a a a a a I I a a a a a I I I I I I >.                      ",
"                          J I I I I I I I I I I I I >.I I I >.I I I I                           ",
"                          S >.I I I I I I I I I I I I I I I I I I I >.                          ",
"                                                                                                ",
"                                                                                                ",
"                                                                                                ",
"                                                                                                ",
"                                                                                                ",
"                                                                                                ",
"                                                                                                ",
"                                                                                                "
};
