/* XPM */
static char *_1232b36f4c44c3ba4d1643eeb602d93KuHZMBJ7U9FRd5Q3[] = {
/* columns rows colors chars-per-pixel */
"48 48 109 2 ",
"   c None",
".  c #754F54",
"X  c #754D5E",
"o  c #6F505C",
"O  c #725153",
"+  c #71505A",
"@  c #76605D",
"#  c #754D62",
"$  c #8C6555",
"%  c #83645C",
"&  c #8E635B",
"*  c #83685E",
"=  c #8A6958",
"-  c #926257",
";  c #92615C",
":  c #945F62",
">  c #856562",
",  c #8C6360",
"<  c #806867",
"1  c #916160",
"2  c #BB9D6D",
"3  c #AB9175",
"4  c #AA927A",
"5  c #AF9C7B",
"6  c #B19A7F",
"7  c #C7976D",
"8  c #C8976D",
"9  c #C39A6D",
"0  c #D7BF6E",
"q  c #D7BE74",
"w  c #D3C266",
"e  c #D8C065",
"r  c #D5C169",
"t  c #CEC274",
"y  c #D0C175",
"u  c #C67F87",
"i  c #B29B83",
"p  c #C38186",
"a  c #C58088",
"s  c #CDBEA6",
"d  c #D1BBA8",
"f  c #E9CF9E",
"g  c #E6CFA3",
"h  c #E9CEA4",
"j  c #E7CEAB",
"k  c #EACDA9",
"l  c #E4D1A4",
"z  c #FBEFBE",
"x  c #EFF4BE",
"c  c #F9F2B5",
"v  c #F3F2BF",
"b  c #FAF0BC",
"n  c #F8F0BF",
"m  c #F8F1BB",
"M  c #D7D6DB",
"N  c #D8D7DC",
"B  c #D8D7DD",
"V  c #DBD7DF",
"C  c #DCD7DE",
"Z  c #DED6DF",
"A  c #DAD7DE",
"S  c #D6DADA",
"D  c #D9D8DD",
"F  c #DAD8DC",
"G  c #DAD8DD",
"H  c #DBD8DD",
"J  c #D8D9DE",
"K  c #D9D8DF",
"L  c #D8D9DF",
"P  c #DAD9DE",
"I  c #D9D8DE",
"U  c #E1D4DD",
"Y  c #FAEEC6",
"T  c #F8EEC9",
"R  c #FAEEC9",
"E  c #FBEDCC",
"W  c #EFF2C5",
"Q  c #EEF4C5",
"!  c #F1F2C1",
"~  c #F2F2C1",
"^  c #F3F2C1",
"/  c #F3F1C2",
"(  c #F3F1C3",
")  c #F1F2C3",
"_  c #F2F2C2",
"`  c #F4F1C0",
"'  c #F5F1C0",
"]  c #F4F1C1",
"[  c #F5F1C1",
"{  c #F4F1C2",
"}  c #F5F1C2",
"|  c #F1F1C6",
" . c #F3F1C7",
".. c #F4F1C4",
"X. c #F5F0C6",
"o. c #F7F0C6",
"O. c #F9F0C1",
"+. c #DFD5E1",
"@. c #DCD7E1",
"#. c #DED6E1",
"$. c #DDD7E2",
"%. c #DED6E2",
"&. c #D5D8E5",
"*. c #D8D8E0",
"=. c #D9D8E0",
"-. c #D9D8E1",
";. c #D8D8E2",
":. c #D8D8E1",
">. c #E2D3E5",
/* pixels */
"                                                                                                ",
"                                                                                                ",
"                                                                                                ",
"                                                                                                ",
"                                                                                                ",
"                                                                                                ",
"                                                                                                ",
"                                                                                                ",
"                                                                                                ",
"                                                                                                ",
"                                                                                                ",
"                                              ; & & & & & ;                                     ",
"                                              ; & & & & & &                                     ",
"                                          > > a p p p p p p % > @                               ",
"                                          & & u a a a a a a & & >                               ",
"                                          ; ; u a a a a a p 1 ; %                               ",
"                                    & & 3 m x m ~ ~ ~ ~ ~ m v m Y & ;                           ",
"                                    & & 4 ~ v v  .~ v v v x o.~ T , ;                           ",
"                                & , } m d # X X # E m v v o.# # # X X & ,                       ",
"                                & & v v s # # # # o.v v v ~ # X # # # & &                       ",
"                                & & v m s o + + + T v v c m O . . + o ; &                       ",
"                                & & v m ~ W v v  .~ m m e w r r t v } 1 &                       ",
"                                , : v v v v v v v v v m e r r e y } } & &                       ",
"                          > & & } v } v v v v v v v v x } m } ~ v x } & &                       ",
"                          ; & = v v v v v v v v v v v v v v v v v v } & &                       ",
"                          i 6 5 v v v v v v v v v v v v v v v v v v } & &                       ",
"                      ; 1 Q ~ v v v v v v v v v v v v v v v v v v v } & &                       ",
"                      & & b v m v v v v v v m v x v m v v v v v v v v , &                       ",
"                      & ; h h l m v v v v v v 7 7 z v v v v v m z h g 1 &                       ",
"                      ; & k k l x v v v v v v 7 9 b m v v v v v O.k g & &                       ",
"                          = $ $ 2 9 9 9 9 9 2 h h l l l l l l l j = $                           ",
"                          % & - 7 9 9 9 9 9 9 g k k g k k k k k k & ;                           ",
"                          > & & 9 9 9 9 9 9 2 k h f k k k h k h k $ &                           ",
"                          J *.+.; $ r r r r r & ; 0 w r r r & & * S &.                          ",
"                          B J U ; 1 r w w w w ; ; q w w w w ; ; > J J                           ",
"                      B J J J J Z +.& & & & & +.+.% & & & & >.+.Z J J J J                       ",
"                      *.J J J J J *.& & & & ; *.B > , & & & +.J J J J J *.                      ",
"                      B M J J J J *.> & & & > *.*.< , & & > B J J J J B J                       ",
"                          J J J J J *.J J J *.F J *.B J J *.J J J J J                           ",
"                          J J J J J J J J J J J B B B J J J J J J J J                           ",
"                                                                                                ",
"                                                                                                ",
"                                                                                                ",
"                                                                                                ",
"                                                                                                ",
"                                                                                                ",
"                                                                                                ",
"                                                                                                "
};
