/* XPM */
static char *result[] = {
/* columns rows colors chars-per-pixel */
"48 48 80 1 ",
"  c #774D5A",
". c #784B5F",
"X c #775A51",
"o c #745C5B",
"O c #7E5F5B",
"+ c #7E615B",
"@ c #764B67",
"# c #794A62",
"$ c #835E5C",
"% c #8D5F5D",
"& c #935E57",
"* c #8A6456",
"= c #83625C",
"- c #8D635B",
"; c #81685B",
": c #91625B",
"> c #9C7F5B",
", c #A17E57",
"< c #846363",
"1 c #8E6261",
"2 c #926060",
"3 c #BA9E6F",
"4 c #C8976C",
"5 c #C49A6B",
"6 c #C19871",
"7 c #C19779",
"8 c #D7BE74",
"9 c #D8BE74",
"0 c #D6BE79",
"q c #D6C25E",
"w c #CFC36B",
"e c #D3C265",
"r c #D3C16B",
"t c #CEC275",
"y c #D3C070",
"u c #C37E84",
"i c #C67F88",
"p c #BB8082",
"a c #B79995",
"s c #C58087",
"d c #C58088",
"f c #CAB59E",
"g c #C5ADAC",
"h c #CAB5A1",
"j c #CBB7B7",
"k c #CBB6B9",
"l c #EACF9E",
"z c #E7D197",
"x c #E9D097",
"c c #E7D19C",
"v c #E7CEA5",
"b c #E9CDA4",
"n c #E6CEAB",
"m c #EACAAB",
"M c #E3D1A4",
"N c #E2D6AF",
"B c #E4D4B3",
"V c #E8D3B4",
"C c #EDDBB6",
"Z c #F0DAB9",
"A c #FBEFBC",
"S c #EEF4BC",
"D c #F3F2BE",
"F c #F8F1BB",
"G c #D5DAD7",
"H c #D6D5DA",
"J c #DCD7DE",
"K c #D5DADD",
"L c #D9D8DF",
"P c #EED9C3",
"I c #FAEFC4",
"U c #FDEDCA",
"Y c #EFF3C1",
"T c #F4F1C1",
"R c #F8F0C2",
"E c #F9EDD0",
"W c #DAD7E2",
"Q c #D7D9E0",
"! c #D9D8E1",
"~ c None",
/* pixels */
"~~~~~~~~~~~~~~~~~~~~~~~~~~~~~~~~~~~~~~~~~~~~~~~~",
"~~~~~~~~~~~~~~~~~~~~~~~~~~~~~~~~~~~~~~~~~~~~~~~~",
"~~~~~~~~~~~~~~~~~~~~~~~~~~~~~~~~~~~~~~~~~~~~~~~~",
"~~~~~~~~~~~~~~~~~~~~~~~~~~~~~~~~~~~~~~~~~~~~~~~~",
"~~~~~~~~~~~~~~~~~~~~~~~~~~~~~~~~~~~~~~~~~~~~~~~~",
"~~~~~~~~~~~~~~~~~~~~~~~~~~~~~~~~~~~~~~~~~~~~~~~~",
"~~~~~~~~~~~~~~~~~~~~~~~~~~~~~~~~~~~~~~~~~~~~~~~~",
"~~~~~~~~~~~~~~~~~~~~~~~~~~~~~~~~~~~~~~~~~~~~~~~~",
"~~~~~~~~~~~~~~~~~~~~~~~~~~~~~~~~~~~~~~~~~~~~~~~~",
"~~~~~~~~~~~~~~~~~~~~~~:------$~~~~~~~~~~~~~~~~~~",
"~~~~~~~~~~~~~~~~~~~~~~------==~~~~~~~~~~~~~~~~~~",
"~~~~~~~~~~~~~~~~~~~$::ssisissu-:~~~~~~~~~~~~~~~~",
"~~~~~~~~~~~~~~~~~~~$-:sdsssssp::~~~~~~~~~~~~~~~~",
"~~~~~~~~~~~~~~~~~OOVBNZZZZZZZCBVX;o~~~~~~~~~~~~~",
"~~~~~~~~~~~~~~~~~--IDSDDDDDDDDDD:1-~~~~~~~~~~~~~",
"~~~~~~~~~~~~~~~~~11USDDDDDDDSDDD:1+~~~~~~~~~~~~~",
"~~~~~~~~~~~~~~<--FDDFF# fDDDTP#@YTR-:~~~~~~~~~~~",
"~~~~~~~~~~~~~~%:2DDDSD@ fDTTYP##TTR-:~~~~~~~~~~~",
"~~~~~~~~~~~~~~%-1SDDDDERDDFtrr89YTR-:~~~~~~~~~~~",
"~~~~~~~~~~~~~~--:DDDDTTTDSSrryreSTI-:~~~~~~~~~~~",
"~~~~~~~~~~~~~~*-*SDDDTDDTTDweeewFTR--~~~~~~~~~~~",
"~~~~~~~~~~~~&:DDSDDTDDDTDDDTDDYYDTR:-~~~~~~~~~~~",
"~~~~~~~~~~~~%%UDDTDDDTDDDDTDDTTDTTR*:~~~~~~~~~~~",
"~~~~~~~~~1--TITDDDDDDDDDDTDDDDDDTRI-:~~~~~~~~~~~",
"~~~~~~~~~1--DDDDDDTFTTDDDDDDDTDDDTR::~~~~~~~~~~~",
"~~~~~~~~~---RDDDDTDDFFDDTDTDDDDDRRI::~~~~~~~~~~~",
"~~~~~~~~~---bbADDTD355DDDDTDTDTDbvm-:~~~~~~~~~~~",
"~~~~~~~~~--1bvIDDDT355DTDDDDDDSDvbb::~~~~~~~~~~~",
"~~~~~~~~~---5555555bvvvvvvvvMvvn-1+~~~~~~~~~~~~~",
"~~~~~~~~~1-14555555lvbnvvvncvvvv--;~~~~~~~~~~~~~",
"~~~~~~~~~<=$7666665mmmzxlxzmmmmm++o~~~~~~~~~~~~~",
"~~~~~~~~~~~~:---:-::-1ee8ee:-:::~~~~~~~~~~~~~~~~",
"~~~~~~~~~~~~:--::----28q8ee:--&:~~~~~~~~~~~~~~~~",
"~~~~~~~~~~~~KLLKJ::9ee%%*%*G!!QKWJL~~~~~~~~~~~~~",
"~~~~~~~~~~~~LLLLJ:-0rq$&--:LLLLLLLH~~~~~~~~~~~~~",
"~~~~~~~~~~HHLLLL!kk>,3$&akjJ!LLLLLWHH~~~~~~~~~~~",
"~~~~~~~~~!LLLLLL!LJ;:1*:gW!LLLLLLLLL!~~~~~~~~~~~",
"~~~~~~~~~LLLLLLLLLL<:-::gLLLLLLLLLLLL~~~~~~~~~~~",
"~~~~~~~~~~~~LLLLLLLLLLLQLLLLLLLLL!L~~~~~~~~~~~~~",
"~~~~~~~~~~~~!LLLLLLLLLLLLLLLLLLLLLL~~~~~~~~~~~~~",
"~~~~~~~~~~~~~~~~~~~~~~~~~~~~~~~~~~~~~~~~~~~~~~~~",
"~~~~~~~~~~~~~~~~~~~~~~~~~~~~~~~~~~~~~~~~~~~~~~~~",
"~~~~~~~~~~~~~~~~~~~~~~~~~~~~~~~~~~~~~~~~~~~~~~~~",
"~~~~~~~~~~~~~~~~~~~~~~~~~~~~~~~~~~~~~~~~~~~~~~~~",
"~~~~~~~~~~~~~~~~~~~~~~~~~~~~~~~~~~~~~~~~~~~~~~~~",
"~~~~~~~~~~~~~~~~~~~~~~~~~~~~~~~~~~~~~~~~~~~~~~~~",
"~~~~~~~~~~~~~~~~~~~~~~~~~~~~~~~~~~~~~~~~~~~~~~~~",
"~~~~~~~~~~~~~~~~~~~~~~~~~~~~~~~~~~~~~~~~~~~~~~~~"
};
