/* XPM */
static char *result[] = {
/* columns rows colors chars-per-pixel */
"48 48 63 1 ",
"  c #7C4F4D",
". c #614D54",
"X c #6E4C56",
"o c #6B4759",
"O c #674E5A",
"+ c #6D4B5B",
"@ c #734D53",
"# c #74475C",
"$ c #754D5E",
"% c #794C5C",
"& c #6A505A",
"* c #74515D",
"= c #6F4F60",
"- c #764C62",
"; c #794B61",
": c #725160",
"> c #835B53",
", c #865D5C",
"< c #895D5E",
"1 c #8D6355",
"2 c #8E625C",
"3 c #91625B",
"4 c #9D775B",
"5 c #9E7A5A",
"6 c #A47555",
"7 c #AB7753",
"8 c #A67A55",
"9 c #AB7955",
"0 c #A3755B",
"q c #AC775C",
"w c #A6795C",
"e c #AA795A",
"r c #845A61",
"t c #885E64",
"y c #8E6262",
"u c #916161",
"i c #A37764",
"p c #A67861",
"a c #A87961",
"s c #A2756E",
"d c #BA976B",
"f c #BB996C",
"g c #BE9A73",
"h c #BD977C",
"j c #BC9978",
"k c #C29C5E",
"l c #C39A67",
"z c #C1966A",
"x c #C39A6C",
"c c #C09975",
"v c #C1987A",
"b c #D3B586",
"n c #D6B78C",
"m c #D3B888",
"M c #DCBA8B",
"N c #E0B88C",
"B c #E3CC9D",
"V c #E7CFA0",
"C c #EACEA5",
"Z c #E7CEA8",
"A c #E8CEAA",
"S c #EED3A8",
"D c None",
/* pixels */
"$-$-$$DDDDDDDDDDDDDDD%OO++ODDDDDDDDDDDDDDD-$-$-$",
"+-----DDDDDDDDDDDDDDD-;=---DDDDDDDDDDDDDDD$---$+",
"O:----DDDDDDDDDDDDDDD$-$---DDDDDDDDDDDDDDD-$-%#o",
"gjvgcg+-+DDDDDD%$*+$$jgcggjX+&DDDDDDDDD+-@vgcvch",
"xxllll@--DDDDDD:-----xkxllf--:DDDDDDDDD:-$llllld",
"dxxxxx$--DDDDDD;-$-$*xxlxlx-%-DDDDDDDDD%$%xxlxxg",
"dxcxxx%--%-$-$$ggcxgc311131---DDDDDDDDD--%xcxxxf",
"dxxxxx%-:------xkxlll22122y---DDDDDDDDD$$%lxxxxd",
"dxxxxx@--*-$---xxxxxxy22333;--DDDDDDDDD-%%xxxfxf",
"dxxxxx%--gcxxxf31132312222t-;-DDDDDDDDD--%xxxxxf",
"dxxxxx%--xklllx131222222222-$-DDDDDDDDD:%%xxxxxf",
"dxcxxx%--xlxlxx21333322y222-$$DDDDDDDDD-$%xcxxxf",
"bMMMMM%--23233323222<eewy2y---DDDDDDDDD$-%NMMMMm",
"mMMMMM%-$2322y2yy2222eqe3y2-*$DDDDDDDDD-$*MMMMMM",
"bNMMMM*--2223332222228eay22-%-DDDDDDDDD-$%NMMMMn",
"4wwe88%--2y22222232229eeu33-:$DDDDDDDDD#%%ee9w95",
"5ew9ee%--2u22222222227qey22--$DDDDDDDDD-;%qeq990",
"6weqee%--2u23222222227wqy3y---DDDDDDDDD#;%qaeee6",
"0q9qqq%--2u2wew2232327eeu32-$-DDDDDDDDD;;%qe9e86",
"iw9ee9%--yuyeee32<2229pey32-$$DDDDDDDDD;;%aeeee6",
"0e9eee%--2u2wea3212237eey22--$DDDDDDDDD;%%eeeew6",
"ttuyyy%-$2u2ewq3222227weSCC+$-DDDDDDDDD#;;33yu2>",
",33321---2u29wq2122227weCCZ%--DDDDDDDDD;;-<3323,",
",21222---2u2eeq2222227eeACS;*$DDDDDDDDD;-;33222>",
"699997#--yy2eeq312223BCCy22---DDDDDDDDD-*%ee9970",
"we88qw%--2u2eeq222223BCZ2<2---DDDDDDDDD-$%qeeww6",
"pqeqqe;--2u2wwey22223CAZ231---DDDDDDDDD-$%eaqqe6",
"0weeqe;--2u29eq2122229q8y22--*DDDDDDDDD-$%eeee96",
"ww9eqe%--2u2eeqy222228qwu2y-$$DDDDDDDDD--%eee9e6",
"wq9e9e%--2u29eq2122227qeu22-$-DDDDDDDDD;$%aeeee6",
"0w9eee%--2u2ee93122229aey32-*-DDDDDDDDD;;%eee9e6",
"0w9eee%--2u2weq2222229eey32-;$DDDDDDDDD;;%aeee98",
"0eewee$--2u2eee2222229we222---DDDDDDDDD-$%ewewew",
"ryyyyy%-$2u2eeqy12222y2222t-%$DDDDDDDDD-;;u3yyy>",
"<23333---2y2ewq222322yy2223;*-DDDDDDDDD$--uy333,",
"t2333u---2u29eq2222223222yy-;*DDDDDDDDD$;-33333>",
"697777%--2u2ewq312222222322---DDDDDDDDD-%%qw9996",
"8w8eew---2u29wqy222222223<3---DDDDDDDDD$$%99eee6",
"wwee99*--yu2aw912y222y222yy$;*DDDDDDDDD-;%aeeee6",
"0p9eee%;-2u2222222222;-----DDDDDDDDDDDD:$%ee9e96",
"ww9eee;--2u2yyy22222y----$-DDDDDDDDDDDD-;%aeq9e8",
"0eq9ee%--2u2222y2y22y*$*$$$DDDDDDDDDDDD$#%eaqee8",
"0w9qe9%--2y22y2;-----DDDDDDDDDDDDDDDDDD-;%ee9ee6",
"0w9eee%--2y2222----$-DDDDDDDDDDDDDDDDDD-;%eeeee6",
"iwpppp@--yyyyyyX#$+$+DDDDDDDDDDDDDDDDDD$- ppppps",
"O$:$--------;--DDDDDDDDDDDDDDDDDDDDDDDD-$$$-$$-o",
"$$-$%%--$-----;DDDDDDDDDDDDDDDDDDDDDDDD--$$%#%$O",
"O+++++++++$++++DDDDDDDDDDDDDDDDDDDDDDDD*+$++$++."
};
