/* XPM */
static char *_aa4c70ffa62466de65e519b51a74ccfxBi19cNSvoMqJuCZ[] = {
/* columns rows colors chars-per-pixel */
"48 48 195 2 ",
"   c None",
".  c #674351",
"X  c #624551",
"o  c #624754",
"O  c #644454",
"+  c #654555",
"@  c #674656",
"#  c #6A4C5B",
"$  c #6B4D5C",
"%  c #6C4E5D",
"&  c #6D4F5E",
"*  c #6F4F5F",
"=  c #744D58",
"-  c #774D58",
";  c #754E58",
":  c #774D5A",
">  c #774D5B",
",  c #754B5F",
"<  c #774D5C",
"1  c #774C5D",
"2  c #774D5D",
"3  c #754D5F",
"4  c #784D5A",
"5  c #6E505F",
"6  c #715059",
"7  c #724D60",
"8  c #734D60",
"9  c #734D61",
"0  c #724E60",
"q  c #734E60",
"w  c #734E61",
"e  c #724F61",
"r  c #744D60",
"t  c #754D60",
"y  c #764C60",
"u  c #764D60",
"i  c #764C61",
"p  c #774D61",
"a  c #744E60",
"s  c #744E61",
"d  c #774C64",
"f  c #6F5160",
"g  c #705160",
"h  c #8E6356",
"j  c #8B6359",
"k  c #8C6359",
"l  c #8E6358",
"z  c #8E6359",
"x  c #8D625B",
"c  c #8E635A",
"v  c #8F625B",
"b  c #8A6459",
"n  c #88635C",
"m  c #8F625C",
"M  c #8E635C",
"N  c #8F625D",
"B  c #8E635D",
"V  c #8D635E",
"C  c #8E625E",
"Z  c #8F625E",
"A  c #8E635E",
"S  c #8E625F",
"D  c #8F625F",
"F  c #8B665C",
"G  c #906259",
"H  c #916259",
"J  c #91625A",
"K  c #936558",
"L  c #936559",
"P  c #93655A",
"I  c #996B5B",
"U  c #996B5C",
"Y  c #996B5D",
"T  c #99755F",
"R  c #9D785F",
"E  c #9F7B5E",
"W  c #A77956",
"Q  c #A37D57",
"!  c #A87A55",
"~  c #A87A56",
"^  c #A87A57",
"/  c #A1735B",
"(  c #A2745B",
")  c #A2745C",
"_  c #A2755D",
"`  c #A2755E",
"'  c #A77858",
"]  c #A77A59",
"[  c #A7795B",
"{  c #A77A5A",
"}  c #A37D58",
"|  c #A7795C",
" . c #A77A5D",
".. c #A6795E",
"X. c #A87958",
"o. c #A87959",
"O. c #AB7959",
"+. c #A87A58",
"@. c #A87A59",
"#. c #A8795A",
"$. c #A8795B",
"%. c #AA795A",
"&. c #AB795B",
"*. c #A87A5A",
"=. c #AC795B",
"-. c #AC7A5B",
";. c #A87A5D",
":. c #A87A5E",
">. c #A87B5F",
",. c #AC795C",
"<. c #AC795D",
"1. c #866460",
"2. c #876461",
"3. c #876561",
"4. c #8D6360",
"5. c #8F6260",
"6. c #8F6261",
"7. c #886562",
"8. c #9A7562",
"9. c #9E7860",
"0. c #9E7960",
"q. c #9F7B61",
"w. c #A07A60",
"e. c #A07B61",
"r. c #A17B61",
"t. c #A17B62",
"y. c #A17B63",
"u. c #A17C60",
"i. c #A27C62",
"p. c #A07C65",
"a. c #A97B62",
"s. c #A87B66",
"d. c #A57E6D",
"f. c #A67E6D",
"g. c #A77D6F",
"h. c #A67E6E",
"j. c #A67D72",
"k. c #AF8772",
"l. c #AF8773",
"z. c #AF8774",
"x. c #AE8777",
"c. c #AE8872",
"v. c #AF8973",
"b. c #B08774",
"n. c #B89575",
"m. c #BB9774",
"M. c #BB9870",
"N. c #BA9874",
"B. c #BB9974",
"V. c #BB9A75",
"C. c #BC9A75",
"Z. c #B4957F",
"A. c #BF987C",
"S. c #BF997C",
"D. c #BF997D",
"F. c #C39866",
"G. c #C49A67",
"H. c #C59A67",
"J. c #C59968",
"K. c #C59969",
"L. c #C59A68",
"P. c #C49A6A",
"I. c #C49A6B",
"U. c #C0996E",
"Y. c #C1996E",
"T. c #C2986F",
"R. c #C2996F",
"E. c #C49A6C",
"W. c #C5996E",
"Q. c #C39A70",
"!. c #C49970",
"~. c #C49972",
"^. c #C0987D",
"/. c #C09A7D",
"(. c #C0987E",
"). c #C0997E",
"_. c #C0987F",
"`. c #D5AD7F",
"'. c #D4AE7F",
"]. c #CDAD86",
"[. c #DCB989",
"{. c #D3B791",
"}. c #D4B891",
"|. c #E6CFA5",
" X c #E9CEA4",
".X c #E9CEA5",
"XX c #ECCCA7",
"oX c #EDCCA7",
"OX c #E7CEAA",
"+X c #E7CEAB",
"@X c #E7CEAC",
"#X c #EACDA8",
"$X c #EBCEA8",
"%X c #ECCEA8",
"&X c #ECCDAB",
/* pixels */
"y y y y y y                                                                         y y y y y @ ",
"y y y y y y                                                                         y y y y y @ ",
"y y y y , y                                                                         y y y y y @ ",
"(.(.S.(.(.(.f # %                                                             % 5 6 (.S.S.(.S.Z.",
"L.L.G.L.L.G.9 9 y                                                             y 9 : L.G.G.L.F.M.",
"L.L.L.L.L.L.y y y                                                             y y : L.L.L.L.L.C.",
"E.E.E.E.E.E.y y y       % f f f f f f f f f f f f f f f f f f f f f $ o       y y : E.E.E.E.E.B.",
"E.E.E.E.E.E.y y y       9 9 9 9 9 9 9 9 9 9 9 9 9 9 9 9 9 9 9 9 9 9 9 9       y y : E.E.E.E.E.C.",
"E.E.E.E.E.E.y y y       y y y y y y y y y y y y y y y y y y y y y y y 9       y y : E.E.E.E.E.B.",
"E.E.E.E.E.E.y , y f f g l.b.l.l.z.l.c.z.z.c.l.z.l.l.b.l.l.b.l.l.z.l.c.z.* f g y y : E.E.E.E.E.n.",
"E.E.E.E.E.E.y y y 9 9 9 L.L.L.G.L.L.G.L.L.G.L.L.G.L.L.L.L.L.L.G.L.L.G.E.9 9 9 y y : E.E.E.E.E.n.",
"E.E.E.E.E.E.y y y y y y L.L.L.L.E.E.L.L.L.L.L.L.L.L.L.L.L.L.L.L.L.L.L.Q.y y y y y : E.E.E.E.E.B.",
"'.'.'.'.'.'.y y y h.h.h._ _ _ _ _ _ _ _ _ _ _ _ _ _ _ _ _ _ _ _ _ _ _ _ h.h.j.y y : '.'.'.'.'.].",
"[.[.[.[.[.[.y y y L.L.L.z z z z z z z z z z z z z z z z z z z z z z z h L.G.~.y y : [.[.[.[.[.{.",
"[.[.[.[.[.[.y y y L.L.L.z z z z z z z z z z z z z z z z z z z z z z z z L.L.~.y y : [.[.[.[.[.}.",
"R.R.R.R.R.R.y y y a.a.a.m m m m m m m m m m m m m m m m m m m m m m m z a.a.s.y y : R.R.R.R.R.n.",
",.,.-.,.,.-.y y y z z z m m m m m m m m m m m m m m m m m m m m m m m m z z m y y 4 ,.-.-.,.#.e.",
"#.#.#.#.#.#.y y y z z z m m m m m m m m m m m m m m m m m m m m m m m m z z m y y : #.#.#.#.#.e.",
"#.#.#.#.#.#.y y y m m m m m m I U U m m m m m m m m m m m m U I U m m m m m m y y : #.#.#.#.#.e.",
"#.#.#.#.#.#.y y y m m m m m m #.#.#.m m m m m m m m m m m m #.#.#.m m m m m m y y : #.#.#.#.#.e.",
"#.#.#.#.#.#.y y y m m m m m m ^ ^ ^ m m m m m m m m m m m m ^ ^ #.m m m m m m y y : #.#.#.#.#.e.",
"_ _ ( _ _ ( y y y m m m m m m #.#.#.m m m m m m m m m m m m #.#.#.m m m m m m y y : _ ( ( _ / 8.",
"m m m m m m y y y m m m m m m #.#.#.m m m m m m m m m m m m #.#.#.m m m m m m y y 1 m m m m z 3.",
"5.5.m 5.5.m y y y m m m m m m #.#.#.m m m m m m m m m m m m #.#.#.m m m m m m y y 1 5.m m 5.5.7.",
"P P P P P P y y y m m m m m m #.#.#.m m m m m m m m m m m m #.#.#.m m m m m m y y : P P P P P F ",
"#.#.#.#.#.#.y y y m m m m m m #.#.#.m m m m m m m m m m m m #.#.#.m m m m m m y y : #.#.#.#.#.u.",
"^ ^ ^ ^ ^ ^ y y y m m m m m m #.#.#.m m m m m m m m m m m m #.#.#.m m m m m m y y : ^ ^ ^ ^ ^ u.",
"#.#.#.#.#.#.y y y m m m m m m #.#.#.m m m m m m m m m m m m #.#.#.m m m m m m y y : #.#.#.#.#.e.",
"#.#.#.#.#.#.y y y m m m m m m #.#.#.m m m m m m m m m m m m #.#.#.m m m m m m y y : #.#.#.#.#.e.",
"#.#.#.#.#.#.y y y m m m m m m #.#.#.m m m m m m m m m m m m #.#.#.m m m m m m y y : #.#.#.#.#.e.",
"#.#.#.#.#.#.y y y m m m m m m #.#.#.m m m m m m m m m m m m Q Q } j b z m m m y y : #.#.#.#.#.q.",
"#.#.#.#.#.#.y y y m m m m m m #.#.#.m m m m m m m m m m m m |.|.|.OXOX@Xm m m y y : #.#.#.#.#.e.",
"#.#.#.#.#.#.y y y m m m m m m #.#.#.m m m m m m m m m m m m .X.X.X.X.X#Xm m m y y : #.#.#.#.#.q.",
":.:.:.:.:.:.y y y m m m m m m #.#.#.m m m m m m m m m m m m oXoXoX%X#X%Xm m 5.y y : :.:.:.:...p.",
"m m m m m m y y y m m m m m m #.#.#.m m m m m m m m m m m m #.#.#.J J J m m m y y 1 m m m m m 3.",
"m m m m m m y y y m m m m m m #.#.#.m m m m m m m m m m m m [ [ [ m m m m m m y y 1 5.m m 5.m 3.",
"J J J J J J y y y m m m m m m #.#.#.m m m m m m m m m m m m #.#.#.m m m m m m y y 1 J J J J J n ",
"^ ^ ^ ^ ^ ^ y y y m m m m m m #.#.#.m m m m m m m m m m m m #.#.#.m m m m m m y y : ^ ^ ^ ^ W E ",
"#.#.^ #.#.^ y y y m m m m m m #.#.#.m m m m m m m m m m m m #.#.#.m m m m m m y y : #.^ ^ #.^ e.",
"#.#.#.#.#.#.y y y m m m m m m #.#.#.m m m m m m m m m m m m #.#.#.m m m m m m y y : #.#.#.#.#.q.",
"#.#.#.#.#.#.y y y m m m m m m #.#.#.m m m m m m m m m m m m #.#.#.m m m m m m y y : #.#.#.#.#.q.",
"#.#.#.#.#.#.y y y m m m m m m #.#.#.m m m m m m m m m m m m #.#.#.m m m m m m y y : #.#.#.#.#.e.",
"#.#.#.#.#.#.y y y m m m m m m [ [ ..m m m m m m m m m m m m [ [ ..m m m m m m y y : #.#.#.#.#.q.",
"#.#.#.#.#.#.y y y m m m m m m 5.5.5.m m m m m m m m m m m m 5.5.5.m m m m m m y y : #.#.#.#.#.q.",
"#.#.#.#.#.#.y y y m m m m m m m m m m m m m m m m m m m m m m m m m m m m m m y y : #.#.#.#.[ E ",
"............y y y m m m m m m m m m m m m m m m m m m m m m m m m m m m m m 5.y y : ........:.T ",
"1 1 1 1 1 1 y y y d d d d d d d d d d d d d d d d d d d d d d d d d d d d d d y y y 1 1 1 1 1 X ",
"1 1 1 1 1 1 y y y y y y y y y y y y y y y y y y y y y y y y y y y y y y y y y y y y 1 1 1 1 1 . "
};
