/* XPM */
static char *_3d850587c844705b206a9c85b88eb386xILTFekVfrGAEyp[] = {
/* columns rows colors chars-per-pixel */
"48 48 121 2 ",
"   c None",
".  c #3E1D1E",
"X  c #3A2114",
"o  c #35221B",
"O  c #3B1E25",
"+  c #361F2C",
"@  c #381F29",
"#  c #282225",
"$  c #2E232D",
"%  c #342224",
"&  c #392023",
"*  c #33212C",
"=  c #252632",
"-  c #2D2231",
";  c #312131",
":  c #491A11",
">  c #48181B",
",  c #5D3E1D",
"<  c #4E252A",
"1  c #522C23",
"2  c #552C2F",
"3  c #5D3527",
"4  c #5D3E24",
"5  c #6D3526",
"6  c #72312B",
"7  c #642E38",
"8  c #643331",
"9  c #6D3637",
"0  c #613933",
"q  c #6B3835",
"w  c #6E3539",
"e  c #68383A",
"r  c #723431",
"t  c #70432B",
"y  c #6E4431",
"u  c #7B453E",
"i  c #91582B",
"p  c #824137",
"a  c #85413D",
"s  c #88493B",
"d  c #9E4634",
"f  c #9A4835",
"g  c #9D453C",
"h  c #99483B",
"j  c #81523A",
"k  c #8B533C",
"l  c #A34335",
"z  c #A24439",
"x  c #B45C36",
"c  c #B35F3A",
"v  c #C96D2D",
"b  c #CA6B36",
"n  c #C76B3B",
"m  c #CD693C",
"M  c #D7763D",
"N  c #9C4540",
"B  c #934946",
"V  c #855041",
"C  c #9F6142",
"Z  c #AA6E47",
"A  c #BF6641",
"S  c #BA6C48",
"D  c #A87143",
"F  c #A47150",
"G  c #AD7052",
"H  c #CD6742",
"J  c #C56C43",
"K  c #C96942",
"L  c #C96E49",
"P  c #D47643",
"I  c #D17A43",
"U  c #D37655",
"Y  c #E07D44",
"T  c #D5814A",
"R  c #DB854C",
"E  c #DB9555",
"W  c #DD935E",
"Q  c #E0834A",
"!  c #EA8F4E",
"~  c #E59344",
"^  c #E69C46",
"/  c #E7904E",
"(  c #E8914C",
")  c #E78E54",
"_  c #E98E53",
"`  c #E78F5B",
"'  c #E69154",
"]  c #E49254",
"[  c #E49156",
"{  c #E59154",
"}  c #E69151",
"|  c #EA9050",
" . c #EE9C51",
".. c #EE9D53",
"X. c #FABA50",
"o. c #FBB956",
"O. c #F9BA56",
"+. c #FCB75E",
"@. c #F8B959",
"#. c #F9B95A",
"$. c #FBB85A",
"%. c #DA9362",
"&. c #DE9161",
"*. c #DC9261",
"=. c #D89460",
"-. c #E38F60",
";. c #E38F64",
":. c #E09161",
">. c #E09064",
",. c #E09162",
"<. c #FFB563",
"1. c #FBB764",
"2. c #FBB767",
"3. c #F8B863",
"4. c #F7B768",
"5. c #FEFEFC",
"6. c #FCFDFE",
"7. c #FFFDFE",
"8. c #FEFEFE",
"9. c white",
"0. c white",
/* pixels */
"                                                                                                ",
"                                                                                                ",
"                                                                                                ",
"                                                                                                ",
"                                                                                                ",
"                                                                                                ",
"                                                                                                ",
"                                                                                                ",
"                                                                                                ",
"                                                                                                ",
"                                                                                                ",
"                                                                                                ",
"                                                                                                ",
"                          ; ; ; ; ; ; ; ; ; ; ; ; ; ; ;                                         ",
"                          1 2 < 4 , , 4 < 1 3 , , , 0 -                                         ",
"                      $ $ m A g 2.O.3.4.f c ~ $.$.$.<.%                                         ",
"                      ; * l p O =.~ X o . 6 b ! ~ b m $             #                           ",
"                      ; * h a - %.} * * $ 8 H } } K m &             ;                           ",
"                      ; - - * $ W / & - -.F & * * * * B q $ $ $ $ * ` V %                       ",
"                      $ $ $ $ & E _ % % } D $ & & ; + h 9 - & & * * } j +                       ",
"                  9.9.$ - $ 4 2.+.$./ ) ! _ _ K K g h _ L z [ [ m n ( j ;                       ",
"                  9.9.- - y i X.....} / / ) Q P M x x / I x / ( m m U u *                       ",
"                      $ - ! ^ O.m H / / / R m / ) ( } / } ( / ( H K f 8 $                       ",
"                      ; $ $ $ $ ; - $ * ) Z > W ! / / / / / / / / ;.O                           ",
"                      $ $ $ $ $ - $ ; - ! G * W ! / / / / / / / / &.*                           ",
"                9.        $ $ $ $ $ l d f g f W ! / / / } / / / / &.*                           ",
"                9.        ; $ $ * $ z N g l d ` ( [ [ [ } / / / / :.$                           ",
"                          ; $ $ g g $ - H P [ ! [ g d d A } / / / :.$                           ",
"                          $ $ $ w e 8 7 s C / Y T r w 9 k L ) / ( >.$                           ",
"                      9.9.      - - l d + t _ n J + $ $ 8 h ` / ( >.$                           ",
"                                $ $ $ $ ; 5 n : &         O J v | :.$                           ",
"                                $ $ $ $ $ 8 K O $         * S m } :.*                           ",
"                                        ; - * * $           * @ m K *                           ",
"                                        $ $ $ $ $           $ - K J $                           ",
"                                                            = * * * -                           ",
"                                                                                                ",
"                                                                                                ",
"                                                                                                ",
"                                                                                                ",
"                                                                                                ",
"                                                                                                ",
"                                                                                                ",
"                                                                                                ",
"                                                                                                ",
"                                                                                                ",
"                                                                                                ",
"                                                                                                ",
"                                                                                                "
};
