/* XPM */
static char *result[] = {
/* columns rows colors chars-per-pixel */
"48 48 41 1 ",
"  c #2E1F2F",
". c #331F2C",
"X c #341F33",
"o c #2D2425",
"O c #2E222E",
"+ c #32212D",
"@ c #262633",
"# c #2D2231",
"$ c #2C213B",
"% c #312131",
"& c #9E4536",
"* c #9E453B",
"= c #9A483C",
"- c #A14436",
"; c #A0443B",
": c #CD6935",
"> c #CE673B",
", c #CD683C",
"< c #D16636",
"1 c #D26739",
"2 c #D0683D",
"3 c #9E4441",
"4 c #CE6642",
"5 c #CC6940",
"6 c #E78E4D",
"7 c #EA8E4D",
"8 c #E69345",
"9 c #E7904E",
"0 c #E8904B",
"q c #E78F54",
"w c #EA8F54",
"e c #E88E58",
"r c #E59152",
"t c #E89153",
"y c #FCBA4D",
"u c #FCB756",
"i c #F6BB57",
"p c #FBB955",
"a c #FEB659",
"s c #FAB85B",
"d c None",
/* pixels */
"dddddddddddddddddddddddddddddddddddddddddddddddd",
"dddddddddddddddddddddddddddddddddddddddddddddddd",
"dddddddddddddddddddddddddddddddddddddddddddddddd",
"dddddddddddddddddddddddddddddddddddddddddddddddd",
"dddddddddddddddddddddddddddddddddddddddddddddddd",
"dddddddddddddddddddddddddddddddddddddddddddddddd",
"dddddddddddddddddddddddddddddddddddddddddddddddd",
"dddddddddddddddddddddddddddddddddddddddddddddddd",
"dddddddddddddddddddddddddddddddddddddddddddddddd",
"dddddddddddddddddddddddddddddddddddddddddddddddd",
"dddddddddddddddddddddddddddddddddddddddddddddddd",
"dddddddddddddddddddddOX.%%%%%%+%%%%%Oddddddddddd",
"ddddddddddddddddddddd%##O####O###O+%%ddddddddddd",
"dddddddddddddddddddOoysii973-siis-34,O#ddddddddd",
"dddddddddddddddddddO#pisp0t;-iiui-*,:OOddddddddd",
"dddddddddddO%dddddd%%,2rr,:+%++tr+#--#+ddddddddd",
"ddddddddddd#Odddddd%+1,9r,:++++99O#&=#%ddddddddd",
"ddddddddd+o9r#%%%%OOO#%###+0r%O99OOO%@+ddddddddd",
"dddddddddO#rr@++##OO##+%.++79#O78+OO++Oddddddddd",
"dddddddddO#re,:90-;*;;;,26rw7reupiy%+#@ddddddddd",
"dddddddddO$t0,,08--*-**:499990tipui@++#ddddddddd",
"ddddddddd%#*-,,099qrrt000,29996,4sur9%+ddddddddd",
"ddddddddd#%3-1,99rt909000,:9qq6,:ui0r##ddddddddd",
"dddddddddddO+0t9900qt6rq9O%-3,>,4&&**%+ddddddddd",
"ddddddddddd##9990969q0r08OO&=,,,:=*-=#%ddddddddd",
"ddddddddddd+#rr9q9t99r7q0=*OOO###OOO%ddddddddddd",
"ddddddddddd##r99990q99r08**OX+OO+O%%%ddddddddddd",
"dddddddddddO#9996t99r7099r9**X#O%ddddddddddddddd",
"ddddddddddd+#r99qqr00q096963=#+##ddddddddddddddd",
"ddddddddddd##9r60**-***999q5:##++ddddddddddddddd",
"dddddddddddO#9q9t;;--;-rr09:,XX.Oddddddddddddddd",
"dddddddddddO#9t,5#%#O%%,299OO;*X%ddddddddddddddd",
"ddddddddddd+#rw,,##%%%+:,r9O#-=@%ddddddddddddddd",
"dddddddddddO#5,#%dddddd+#,,OO+O##ddddddddddddddd",
"ddddddddddd#+15@Odddddd#+1,#%OO#%ddddddddddddddd",
"ddddddddddd++##+Odddddd%OOO#%ddddddddddddddddddd",
"dddddddddddO%%%%%ddddddO#%#%+ddddddddddddddddddd",
"dddddddddddddddddddddddddddddddddddddddddddddddd",
"dddddddddddddddddddddddddddddddddddddddddddddddd",
"dddddddddddddddddddddddddddddddddddddddddddddddd",
"dddddddddddddddddddddddddddddddddddddddddddddddd",
"dddddddddddddddddddddddddddddddddddddddddddddddd",
"dddddddddddddddddddddddddddddddddddddddddddddddd",
"dddddddddddddddddddddddddddddddddddddddddddddddd",
"dddddddddddddddddddddddddddddddddddddddddddddddd",
"dddddddddddddddddddddddddddddddddddddddddddddddd",
"dddddddddddddddddddddddddddddddddddddddddddddddd",
"dddddddddddddddddddddddddddddddddddddddddddddddd"
};
