/* XPM */
static char *a31d02ea9b384f86a0197c089c6eb8a6Yx0fuZwCKRmL7BTB[] = {
/* columns rows colors chars-per-pixel */
"48 48 103 2 ",
"   c None",
".  c #1E161E",
"X  c #1F181F",
"o  c #341E2B",
"O  c #321F34",
"+  c #2C2526",
"@  c #27262C",
"#  c #2E222E",
"$  c #302327",
"%  c #31212E",
"&  c #2D2331",
"*  c #312131",
"=  c #382033",
"-  c #592B2F",
";  c #5C3B22",
":  c #5C2930",
">  c #643B27",
",  c #67372F",
"<  c #623030",
"1  c #6D3538",
"2  c #713D3F",
"3  c #783A3E",
"4  c #6B422E",
"5  c #714332",
"6  c #7D443C",
"7  c #9E4635",
"8  c #97453D",
"9  c #9E453B",
"0  c #9A483B",
"q  c #82523B",
"w  c #905436",
"e  c #9C583F",
"r  c #A24432",
"t  c #A1433A",
"y  c #B55B3C",
"u  c #C96637",
"i  c #CD6A34",
"p  c #CE673D",
"a  c #CD683B",
"s  c #D16835",
"d  c #D0673D",
"f  c #824142",
"g  c #9E4441",
"h  c #955541",
"j  c #BA5C41",
"k  c #AA6F4B",
"l  c #A6704A",
"z  c #AB764D",
"x  c #A76F53",
"c  c #A87050",
"v  c #C56143",
"b  c #C76F46",
"n  c #CD6842",
"m  c #D06741",
"M  c #C57045",
"N  c #CE784D",
"B  c #D57740",
"V  c #D27652",
"C  c #D07854",
"Z  c #B68A54",
"A  c #DF844B",
"S  c #E1834B",
"D  c #E78F4E",
"F  c #EB8F4B",
"G  c #E89246",
"H  c #EB9945",
"J  c #E6914E",
"K  c #E8904B",
"L  c #E8904C",
"P  c #E8904D",
"I  c #E9904F",
"U  c #E58753",
"Y  c #E68C53",
"T  c #EA8F51",
"R  c #E98E54",
"E  c #E09350",
"W  c #E39152",
"Q  c #E79051",
"!  c #E69350",
"~  c #E69052",
"^  c #E29057",
"/  c #E59155",
"(  c #E89050",
")  c #E89150",
"_  c #E89052",
"`  c #F9BB4E",
"'  c #FABA4F",
"]  c #F5A45B",
"[  c #F4A65E",
"{  c #F8AB58",
"}  c #FAAF59",
"|  c #FFB751",
" . c #FEB752",
".. c #F9B256",
"X. c #F5BB56",
"o. c #FBB953",
"O. c #FBB954",
"+. c #FBB956",
"@. c #FEB855",
"#. c #FEB857",
"$. c #FDB85C",
"%. c #CB9E61",
"&. c #CF9B6B",
/* pixels */
"                                                                                                ",
"                                                                                                ",
"                                                                                                ",
"                                                                                                ",
"                                                                                                ",
"                                                                                                ",
"                                                                                                ",
"                                                                                                ",
"                                                                                                ",
"                                                                                                ",
"                                                                                                ",
"                          # # # # # # & # & # # # # #                                           ",
"                          & % * % % % # % % % % % % o                                           ",
"                      # & p v t +.+.o.#.t y R o.+.+.` & .                                       ",
"                      & % v j 6 } ..%.&.f e U } { [ ] % X                                       ",
"                      & & 9 6 % J K & % $ , a J ) d a % .                                       ",
"                      & # % % * F J O % Q x % % % % &               #                           ",
"                      & # # * + E D % # K k # # % # %               %                           ",
"                      & % # ; ` $.+.F E J N r 9 9 9 8 & * # # # # O P q *                       ",
"                      & & & >  . .#.J J J V 9 7 7 g g # % % # # & # P q *                       ",
"                      & & J H X.p a G J J J Q p a t 9 7 t t J Q a a J q *                       ",
"                      & % k z Z h h c l P Y S B B y y y y y J J d n C 6 %                       ",
"                      & % @ # % % % % & F A a J Q J Q Q Q Q J J m n 9 < #                       ",
"                          * # # O # 0 9 9 3 & J J J J J J J J J J J #                           ",
"                          * # # # O t 9 9 2 & J J J J J J J J J J J #                           ",
"                          * # # 0 t % % # - r J J J J J J J J J J J #                           ",
"                          # & # 9 0 o & # : t J J J J J J J J J J J #                           ",
"                                # * % # 7 y J J J J J J J J J J J J #                           ",
"                                # # # % 1 w / J ) M b b b b J J J J #                           ",
"                                # # # # @ 5 J J J 9 9 7 7 9 J J J J #                           ",
"                              * 9 9 9 9 & 5 J s n # # # * # n a T J @                           ",
"                              * 9 9 9 t % 4 P m u % & & # # i p ) ^ *                           ",
"                              * % % % & p p n @ *         # d n # =                             ",
"                              # # @ & % s p d # #         * p a % #                             ",
"                                    # % # % % # #         * % & & *                             ",
"                                                                                                ",
"                                                                                                ",
"                                                                                                ",
"                                                                                                ",
"                                                                                                ",
"                                                                                                ",
"                                                                                                ",
"                                                                                                ",
"                                                                                                ",
"                                                                                                ",
"                                                                                                ",
"                                                                                                ",
"                                                                                                "
};
