/* XPM */
static char *result[] = {
/* columns rows colors chars-per-pixel */
"48 48 46 1 ",
"  c #371E2C",
". c #341F34",
"X c #2B2623",
"o c #26272A",
"O c #2E222E",
"+ c #312226",
"@ c #32212D",
"# c #2D2231",
"$ c #2D2139",
"% c #312131",
"& c #9C4634",
"* c #9E453B",
"= c #98483D",
"- c #A14336",
"; c #A1433C",
": c #C56C37",
"> c #CE6935",
", c #CC673C",
"< c #C5693C",
"1 c #CD683C",
"2 c #D26636",
"3 c #D0673B",
"4 c #A53F42",
"5 c #9F4241",
"6 c #A24142",
"7 c #CE6644",
"8 c #C76B41",
"9 c #CB6941",
"0 c #E78F4F",
"q c #EA8E4D",
"w c #E99045",
"e c #E7904E",
"r c #E8904D",
"t c #E78F54",
"y c #EB8D53",
"u c #E68E5A",
"i c #E69152",
"p c #E99151",
"a c #E2915C",
"s c #FEB754",
"d c #F6BB55",
"f c #FAB955",
"g c #FFB65A",
"h c #FCB859",
"j c #FFB563",
"k c None",
/* pixels */
"kkkkkkkkkkkkkkkkkkkkkkkkkkkkkkkkkkkkkkkkkkkkkkkk",
"kkkkkkkkkkkkkkkkkkkkkkkkkkkkkkkkkkkkkkkkkkkkkkkk",
"kkkkkkkkkkkkkkkkkkkkkkkkkkkkkkkkkkkkkkkkkkkkkkkk",
"kkkkkkkkkkkkkkkkkkkkkkkkkkkkkkkkkkkkkkkkkkkkkkkk",
"kkkkkkkkkkkkkkkkkkkkkkkkkkkkkkkkkkkkkkkkkkkkkkkk",
"kkkkkkkkkkkkkkkkkkkkkkkkkkkkkkkkkkkkkkkkkkkkkkkk",
"kkkkkkkkkkkkkkkkkkkkkkkkkkkkkkkkkkkkkkkkkkkkkkkk",
"kkkkkkkkkkkkkkkkkkkkkkkkkkkkkkkkkkkkkkkkkkkkkkkk",
"kkkkkkkkkkkkkkkkkkkkkkkkkkkkkkkkkkkkkkkkkkkkkkkk",
"kkkkkkkkkkkkkkkkkkkkkkkkkkkkkkkkkkkkkkkkkkkkkkkk",
"kkkkkkkkkkkkkkkkkkkkkkkkkkkkkkkkkkkkkkkkkkkkkkkk",
"kkkkkkkkkkkO%%%#%%# %%%%% Okkkkkkkkkkkkkkkkkkkkk",
"kkkkkkkkkkkO%@OO####Oo.O###kkkkkkkkkkkkkkkkkkkkk",
"kkkkkkkkkO >,**fffh**trdffj#Okkkkkkkkkkkkkkkkkkk",
"kkkkkkkkk#O><&;fhfs;-iefffs#Okkkkkkkkkkkkkkkkkkk",
"kkkkkkkkkOo*5%Oyu#O%@>1ee13.Okkkkkk%Okkkkkkkkkkk",
"kkkkkkkkk@$6&ooee@##O8<ei18##kkkkkk%Okkkkkkkkkkk",
"kkkkkkkkk%#@@##ie@+qr@%%##@@OO%%%%@ra#Okkkkkkkkk",
"kkkkkkkkkO@#o%@pt#+quO@@%%#O##XO@@+qr@Okkkkkkkkk",
"kkkkkkkkk##%Xfdsgypyeee31;;;;;;ie3>ar@Okkkkkkkkk",
"kkkkkkkkk#O#Osffsieee0e11;*;**;ip37iw@Okkkkkkkkk",
"kkkkkkkkk@@rafh91qeep11rpeippierp13** Okkkkkkkkk",
"kkkkkkkkkO$aefh91eirq3>ieeeeeeiee19=&O#kkkkkkkkk",
"kkkkkkkkk%#&;&;119,*&OOqeeeepeeer0y.#kkkkkkkkkkk",
"kkkkkkkkk%%=***111<&5O.yeeeeeieqeee@@kkkkkkkkkkk",
"kkkkkkkkkkk@OOOO###Oo*;qqeeeeeeieer@Okkkkkkkkkkk",
"kkkkkkkkkkk#%%O@#OOO@-5teeeyeieeeer@%kkkkkkkkkkk",
"kkkkkkkkkkkkkkk%#@.;-y0eieeeeqeeeer@@kkkkkkkkkkk",
"kkkkkkkkkkkkkkkOO@O&*qtepieeierreee@Okkkkkkkkkkk",
"kkkkkkkkkkkkkkk%%OO11ieee-;&-**eeer@Okkkkkkkkkkk",
"kkkkkkkkkkkkkkkO@Oo<>tiqi;;;;;-iier@%kkkkkkkkkkk",
"kkkkkkkkkkkkkkkO%;;@Oqp18#OOO@%1>rr@%kkkkkkkkkkk",
"kkkkkkkkkkkkkkkO$6-o#ep91##%%%@>:pr@Okkkkkkkkkkk",
"kkkkkkkkkkkkkkk%#%OO#<1#@kkkkkk@@1>@@kkkkkkkkkkk",
"kkkkkkkkkkkkkkkO%%#@@>9##kkkkkk#@>8##kkkkkkkkkkk",
"kkkkkkkkkkkkkkkkkkk%O##@Okkkkkk@@##@@kkkkkkkkkkk",
"kkkkkkkkkkkkkkkkkkkO%#%%%kkkkkk#%%%%%kkkkkkkkkkk",
"kkkkkkkkkkkkkkkkkkkkkkkkkkkkkkkkkkkkkkkkkkkkkkkk",
"kkkkkkkkkkkkkkkkkkkkkkkkkkkkkkkkkkkkkkkkkkkkkkkk",
"kkkkkkkkkkkkkkkkkkkkkkkkkkkkkkkkkkkkkkkkkkkkkkkk",
"kkkkkkkkkkkkkkkkkkkkkkkkkkkkkkkkkkkkkkkkkkkkkkkk",
"kkkkkkkkkkkkkkkkkkkkkkkkkkkkkkkkkkkkkkkkkkkkkkkk",
"kkkkkkkkkkkkkkkkkkkkkkkkkkkkkkkkkkkkkkkkkkkkkkkk",
"kkkkkkkkkkkkkkkkkkkkkkkkkkkkkkkkkkkkkkkkkkkkkkkk",
"kkkkkkkkkkkkkkkkkkkkkkkkkkkkkkkkkkkkkkkkkkkkkkkk",
"kkkkkkkkkkkkkkkkkkkkkkkkkkkkkkkkkkkkkkkkkkkkkkkk",
"kkkkkkkkkkkkkkkkkkkkkkkkkkkkkkkkkkkkkkkkkkkkkkkk",
"kkkkkkkkkkkkkkkkkkkkkkkkkkkkkkkkkkkkkkkkkkkkkkkk"
};
