/* XPM */
static char *_09171d1e9984a59a3562eaf727887d0p31rBTNmI8o50IZY[] = {
/* columns rows colors chars-per-pixel */
"48 48 123 2 ",
"   c None",
".  c #1C141C",
"X  c #221A22",
"o  c #2F1E26",
"O  c #2E1F2B",
"+  c #351F2D",
"@  c #2D1F30",
"#  c #341F33",
"$  c #2E2427",
"%  c #27262B",
"&  c #2D222E",
"*  c #31212D",
"=  c #262433",
"-  c #2D2231",
";  c #282833",
":  c #312131",
">  c #4B2624",
",  c #4E252D",
"<  c #532F23",
"1  c #5C2C26",
"2  c #5B2A29",
"3  c #47332D",
"4  c #5A3526",
"5  c #5C3E26",
"6  c #5E3D29",
"7  c #5E3335",
"8  c #6C362C",
"9  c #613133",
"0  c #6D3637",
"q  c #6B373A",
"w  c #703437",
"e  c #6F4139",
"r  c #744233",
"t  c #774E34",
"y  c #9C472E",
"u  c #874C36",
"i  c #894939",
"p  c #9E4636",
"a  c #9D453C",
"s  c #97493F",
"d  c #80523E",
"f  c #985139",
"g  c #A14435",
"h  c #A1443C",
"j  c #B45438",
"k  c #B65D38",
"l  c #CB6A34",
"z  c #CD673E",
"x  c #C46D3A",
"c  c #CD683C",
"v  c #D06837",
"b  c #D0673E",
"n  c #D3693E",
"m  c #D3723F",
"M  c #9E4441",
"N  c #984A42",
"B  c #A14240",
"V  c #93614B",
"C  c #CE6545",
"Z  c #CB6940",
"A  c #D36940",
"S  c #C67943",
"D  c #CE7C4A",
"F  c #D17140",
"G  c #D37840",
"H  c #DB7F46",
"J  c #DD8447",
"K  c #DF834A",
"L  c #EE8D46",
"P  c #E3834F",
"I  c #E68F4E",
"U  c #E88F4F",
"Y  c #E89144",
"T  c #E6914F",
"R  c #E7904F",
"E  c #E5924F",
"W  c #E6924E",
"Q  c #E6914D",
"!  c #E4924B",
"~  c #E8904F",
"^  c #E9904F",
"/  c #E78F55",
"(  c #EB8D51",
")  c #E88F50",
"_  c #E98F50",
"`  c #E88F51",
"'  c #E88F52",
"]  c #EA8E52",
"[  c #EA8E53",
"{  c #EF8C53",
"}  c #E98C54",
"|  c #EA8D56",
" . c #EC8F55",
".. c #E98C54",
"X. c #E59151",
"o. c #E79050",
"O. c #E79150",
"+. c #E69051",
"@. c #E79051",
"#. c #E79052",
"$. c #E69153",
"%. c #E49256",
"&. c #E79051",
"*. c #E99050",
"=. c #E89051",
"-. c #E99051",
";. c #EC9E55",
":. c #EE9C57",
">. c #E29259",
",. c #E1925A",
"<. c #FCB657",
"1. c #F7BB52",
"2. c #F9BA53",
"3. c #FDB953",
"4. c #FBB955",
"5. c #F9B957",
"6. c #FAB957",
"7. c #FDB857",
"8. c #FAB75E",
"9. c #FBB859",
"0. c #FBB85A",
"q. c #F9BA5A",
"w. c #FABA5B",
/* pixels */
"                                                                                                ",
"                                                                                                ",
"                                                                                                ",
"                                                                                                ",
"                                                                                                ",
"                                                                                                ",
"                                                                                                ",
"                                                                                                ",
"                                                                                                ",
"                                                                                                ",
"                                                                                                ",
"                                                                                                ",
"                                                                                                ",
"                          : : : : : : : : : : : : :                                             ",
"                        > 2 , > 5 5 5 < , 4 4 5 5 6                                             ",
"                      : r b B M 5.0.5.S a $.Q 5.0.7.t *                                         ",
"                      - 7 a % * E -.* * : x C U ` c 8 + = & - O       @ :                       ",
"                      - 9 a * - E -.* : * v l $.| n 8 : * - - +       & %                       ",
"                      & ; # = # E -.* V >.& * & ; & & - a h p N = & & Y Q : %                   ",
"                      & & & - - L >.: V ! * * - : - : : p g g s $ - - %.` & %                   ",
"                      & & & 8.2.3.0.| E $.`  .c c E U U ` E ` $.Q F c / ` & %                   ",
"                      & 3 r 5.<.;.;.^ E E J P m G U U U E E E E E m c D D & %                   ",
"                      & d $.0.1.c c ! E E c z E E $.U E E E E E U m z a a : %                   ",
"                      & 9 a M a c c z j g % $ E E E U U E E $.E U E E * -                       ",
"                      - 9 g B h c c c j p & - E E E U U U U E E E E E * -                       ",
"                          - & - - - - & & p h E E E U ` U U E E E E E * -                       ",
"                          & - : & % : * & g p E E E E E E E E $.E E E * -                       ",
"                                    : & & l l E E E k y p p p g U E E * -                       ",
"                                    . O & i u H H $.f q 0 0 q w ` J H % *                       ",
"                                        : * + b c ^ e - * * - - { m b - &                       ",
"                                      X & - - - & Z K E * * U ` z 1 +                           ",
"                                      X - - - & o n P $.& % $.| A 1 -                           ",
"                                              & ; & & % - - & ; & & -                           ",
"                                              & & - & & & & & : & : &                           ",
"                                                                                                ",
"                                                                                                ",
"                                                                                                ",
"                                                                                                ",
"                                                                                                ",
"                                                                                                ",
"                                                                                                ",
"                                                                                                ",
"                                                                                                ",
"                                                                                                ",
"                                                                                                ",
"                                                                                                ",
"                                                                                                ",
"                                                                                                "
};
