/* XPM */
static char *_4782784337647688a2a5e64718fefb4W2FXjXvwKusDiflg[] = {
/* columns rows colors chars-per-pixel */
"48 48 132 2 ",
"   c None",
".  c #2F181F",
"X  c #3C1E1D",
"o  c #37211F",
"O  c #38211F",
"+  c #2D1F27",
"@  c #3A1F25",
"#  c #351F2D",
"$  c #3A1E29",
"%  c #2A1F32",
"&  c #351F33",
"*  c #292720",
"=  c #26212A",
"-  c #2E232E",
";  c #342225",
":  c #382024",
">  c #32212D",
",  c #382028",
"<  c #272632",
"1  c #2E2231",
"2  c #312131",
"3  c #411D1C",
"4  c #54331F",
"5  c #5C3F1D",
"6  c #411C21",
"7  c #481D21",
"8  c #5A1B2E",
"9  c #4F2526",
"0  c #572C25",
"q  c #5B2E27",
"w  c #582028",
"e  c #592A2F",
"r  c #5F3E23",
"t  c #5C342C",
"y  c #67362D",
"u  c #693529",
"i  c #733F2D",
"p  c #662F33",
"a  c #6B3635",
"s  c #67393B",
"d  c #7A3A34",
"f  c #7B3B38",
"g  c #574229",
"h  c #6B462F",
"j  c #724426",
"k  c #744229",
"l  c #74522B",
"z  c #6F4231",
"x  c #7A2B47",
"c  c #7D4D46",
"v  c #873C36",
"b  c #9B4A2A",
"n  c #814037",
"m  c #834C3E",
"M  c #9D4635",
"N  c #9B4831",
"B  c #9D453C",
"V  c #934B3E",
"C  c #99483A",
"Z  c #A14534",
"A  c #A1433C",
"S  c #A15730",
"D  c #B25537",
"F  c #B55C36",
"G  c #B55C3D",
"H  c #BF663F",
"J  c #CA6D2D",
"K  c #CE6A30",
"L  c #C7673C",
"P  c #CE673D",
"I  c #C56D3B",
"U  c #CC693C",
"Y  c #822644",
"T  c #9A3D5A",
"R  c #BB2C56",
"E  c #C7254B",
"W  c #C12755",
"Q  c #8E4C41",
"!  c #9D4543",
"~  c #964843",
"^  c #BE6641",
"/  c #CF6645",
"(  c #C56B44",
")  c #CA6A46",
"_  c #C66F49",
"`  c #CA6E4B",
"'  c #D77A41",
"]  c #D97942",
"[  c #D4774F",
"{  c #D87F4C",
"}  c #C06B52",
"|  c #CB7950",
" . c #F34F71",
".. c #E65677",
"X. c #EB5377",
"o. c #E65870",
"O. c #E2577C",
"+. c #F05079",
"@. c #D9804A",
"#. c #DF934D",
"$. c #DF925F",
"%. c #E98F4D",
"&. c #E69345",
"*. c #E7904F",
"=. c #E9904D",
"-. c #E78F54",
";. c #EB8E52",
":. c #E68F5A",
">. c #E59152",
",. c #E99050",
"<. c #E79F56",
"1. c #E1915C",
"2. c #E89058",
"3. c #E5A04C",
"4. c #FBB955",
"5. c #F7BA5A",
"6. c #FAB95A",
"7. c #DC9164",
"8. c #D29864",
"9. c #E58E67",
"0. c #FBB766",
"q. c #F2BB63",
"w. c #F1BA6C",
"e. c #F0B971",
"r. c #F5B870",
"t. c #F1B878",
"y. c #F4F1F2",
"u. c #FFFCFD",
"i. c #FFFEFD",
"p. c #FEFEFE",
"a. c white",
"s. c #FEFEFE",
/* pixels */
"                                                                                                ",
"                                                                                                ",
"                                                                                                ",
"                                                                                                ",
"                                                                                                ",
"                                                                                                ",
"                                                                                                ",
"                                                                                                ",
"                                                                                                ",
"                                                                                                ",
"                                                                                                ",
"                                                                                                ",
"                                                                                                ",
"                          2 2 2               2 2 2 2 2                                         ",
"                          q 0 0               g r 5 r 9 7                                       ",
"                      > 1 _ / ) . 1 > 2 2 > 2 w.4.5.0.B s >                                     ",
"                          $ w E ! Q e.r.t.8.~ ;.&.b N o.T -               = =                   ",
"                          2 8 W A Z 4.5.4.#.A :.-.M A +.T 2               > &                   ",
"                u.        > > & > ; ;.*.* ; # V Z  .X.R Y 1 - - - - - 1 > 7.#.< -               ",
"              y.u.        2 - - - > >.1.> - > V C ..O.R x & # # , > ; ; @ 1.>.> -               ",
"                          2 - - - > >.1.> h 9.X - > 2 > p C B B B B *.' P -.>.> -               ",
"                          2 > 1 l l 3.<.k S >.j z a u e v G G G G F *.] U [ | > -               ",
"                          2 1 2 q.4.4.4.*.>.>.%.,.P P B ^ -.>.>.>.>.*.] U Z ! + -               ",
"                          2 t 1.4.5.U U *.*.;.K U 2.-.-.*.*.*.*.*.*.*.*.>.3 #                   ",
"                          2 4 %.5.4.U P *.=.>.I P *.*.*.*.*.*.*.*.*.*.*.>.o -                   ",
"                          2 1 & > 1 > 2 > i >.3 ; ;.*.*.*.*.*.*.*.*.*.*.>.O 2                   ",
"                          - - - > 1 , - - q :.@ ; 1.*.*.*.*.*.*.*.*.*.>.>.O 1                   ",
"                              - 1 1 Z A A B B B M $.*.*.*.*.*.*.*.*.*.>.>.O 1                   ",
"                              - - = a a a n D H ^ &.>._ _ _ _ _ _ ` *.-.*.o 1                   ",
"        u.u.                        2 > > y / =.=.-.*.M B B B B B M -.-.*.o 1                   ",
"                                    2 2 A d 6 7.;.J I O $ $ @ @ , 6 ( { *.O 1                   ",
"                                    2 > M f 1 9.-.U ) % 1 1 1 2 2 > L @.>.O 1                   ",
"                                    2 < < - > ( U > >               - m P : 1                   ",
"                                    - - - - > } ) 2 -               2 c ) : -                   ",
"                          u.u.              1 ; < > 2               2 1 : 1 -                   ",
"                          u.                                                                    ",
"                                                                                                ",
"                                                                                                ",
"                                                                                                ",
"                                                                                                ",
"                                                                                                ",
"                                                                                                ",
"                                                                                                ",
"                                                                                                ",
"                                                                                                ",
"                                                                                                ",
"                                                                                                ",
"                                                                                                "
};
