/* XPM */
static char *result[] = {
/* columns rows colors chars-per-pixel */
"48 48 13 1 ",
"  c #E7CFA6",
". c #E7D0A7",
"X c #E8D0A8",
"o c #E8D1A9",
"O c #E9D2AB",
"+ c #E9D3AB",
"@ c #EAD4AC",
"# c #EAD5AE",
"$ c #EBD7B0",
"% c #EBD7B1",
"& c #ECD8B2",
"* c #ECD9B3",
"= c #EDDAB5",
/* pixels */
"                                                ",
"                                                ",
"                                                ",
"                                                ",
"                                                ",
"                                                ",
"                                                ",
"                                                ",
"                        oooooooooooX            ",
"                        ===========%            ",
"                        ===========%            ",
"                     OOO===========&OOX         ",
"                     =================+         ",
"                     =================+         ",
"                     ###===========*##o         ",
"                        ===========%            ",
"                        ===========%            ",
"         ######         @@@@@@@@@@@O            ",
"         ======                                 ",
"         ======                                 ",
"      $$$======$$$                              ",
"      ============                              ",
"      ============                              ",
"      ooo======ooo                              ",
"         ======                                 ",
"         ======                                 ",
"         ......                                 ",
"                                                ",
"                                                ",
"                                 =====+         ",
"                                 =====+         ",
"                                 =====+         ",
"                              ===========       ",
"                              ===========       ",
"                              ===========       ",
"                                 =====+         ",
"                                 =====+         ",
"                                 =====+         ",
"                                                ",
"                                                ",
"                                                ",
"                                                ",
"                                                ",
"                                                ",
"                                                ",
"                                                ",
"                                                ",
"                                                "
};
